<svg width="76" height="75" viewBox="0 0 76 75" fill="none" xmlns="http://www.w3.org/2000/svg">
<rect width="75.9146" height="75" rx="14" fill="#FFC501"/>
<path d="M47.0907 41.7631C46.3611 43.8048 44.9094 45.4968 43.0025 46.5299C41.088 47.5624 38.8567 47.8628 36.7241 47.3752C34.6256 46.9423 32.7308 45.8131 31.3499 44.1724C29.969 42.5318 29.1839 40.4768 29.123 38.3441C29.0295 36.1744 29.7257 34.0506 31.0833 32.3643C32.4408 30.6781 34.3682 29.5432 36.5099 29.1689C40.8626 28.3726 44.9919 26.7084 48.6504 24.2709V24.2709C53.259 21.1043 53.4062 14.2889 48.198 12.24C39.7829 8.9294 28.8163 9.16009 19.7601 16.9039C15.8252 20.3307 12.9562 24.8089 11.4868 29.8177C10.0117 34.8539 9.98669 40.2132 11.4146 45.2866C12.8468 50.3837 15.6657 54.9966 19.5577 58.6121C23.4498 62.2277 28.2626 64.7043 33.4609 65.7666L32.8851 65.8192L40.21 66.5518L46.1894 65.3921C50.1287 64.345 53.7797 62.4402 56.881 59.8142C68.0031 50.4202 68.7318 35.4404 63.2242 25.743C62.4891 24.4486 60.727 23.863 59.2972 24.2891V24.2891C59.1157 24.3432 59.0933 24.3521 58.9118 24.4061C51.737 26.5426 49.8651 34.238 47.0946 41.7633" fill="black"/>
</svg>
