<svg width="109" height="40" viewBox="0 0 109 40" fill="none" xmlns="http://www.w3.org/2000/svg">
<path d="M9.57219 31.9888C8.43219 31.9888 7.29219 31.9488 6.15219 31.8688C5.03219 31.8088 3.86219 31.6487 2.64219 31.3887V11.2287C3.60219 11.0487 4.65219 10.9187 5.79219 10.8387C6.93219 10.7387 7.99219 10.6887 8.97219 10.6887C10.2922 10.6887 11.5022 10.7887 12.6022 10.9887C13.7222 11.1687 14.6822 11.4887 15.4822 11.9487C16.2822 12.4087 16.9022 13.0187 17.3422 13.7787C17.8022 14.5187 18.0322 15.4387 18.0322 16.5387C18.0322 18.1987 17.2322 19.5087 15.6322 20.4687C16.9522 20.9687 17.8522 21.6487 18.3322 22.5087C18.8122 23.3687 19.0522 24.3387 19.0522 25.4187C19.0522 27.5987 18.2522 29.2387 16.6522 30.3387C15.0722 31.4387 12.7122 31.9888 9.57219 31.9888ZM7.20219 22.6587V28.0287C7.54219 28.0687 7.91219 28.0987 8.31219 28.1187C8.71219 28.1387 9.15219 28.1487 9.63219 28.1487C11.0322 28.1487 12.1622 27.9487 13.0222 27.5487C13.8822 27.1487 14.3122 26.4087 14.3122 25.3287C14.3122 24.3687 13.9522 23.6887 13.2322 23.2887C12.5122 22.8687 11.4822 22.6587 10.1422 22.6587H7.20219ZM7.20219 19.0887H9.48219C10.9222 19.0887 11.9522 18.9087 12.5722 18.5487C13.1922 18.1687 13.5022 17.5687 13.5022 16.7487C13.5022 15.9087 13.1822 15.3187 12.5422 14.9787C11.9022 14.6387 10.9622 14.4687 9.72219 14.4687C9.32219 14.4687 8.89219 14.4787 8.43219 14.4987C7.97219 14.4987 7.56219 14.5187 7.20219 14.5587V19.0887ZM26.9684 31.7188H22.4984V15.9387H26.9684V31.7188ZM27.3884 11.3787C27.3884 12.1987 27.1184 12.8487 26.5784 13.3287C26.0584 13.7887 25.4384 14.0187 24.7184 14.0187C23.9984 14.0187 23.3684 13.7887 22.8284 13.3287C22.3084 12.8487 22.0484 12.1987 22.0484 11.3787C22.0484 10.5587 22.3084 9.91875 22.8284 9.45875C23.3684 8.97875 23.9984 8.73875 24.7184 8.73875C25.4384 8.73875 26.0584 8.97875 26.5784 9.45875C27.1184 9.91875 27.3884 10.5587 27.3884 11.3787ZM31.0203 12.0087L35.4903 11.2887V15.9387H40.8603V19.6587H35.4903V25.2087C35.4903 26.1487 35.6503 26.8987 35.9703 27.4587C36.3103 28.0187 36.9803 28.2987 37.9803 28.2987C38.4603 28.2987 38.9503 28.2587 39.4503 28.1787C39.9703 28.0787 40.4403 27.9487 40.8603 27.7887L41.4903 31.2687C40.9503 31.4887 40.3503 31.6787 39.6903 31.8388C39.0303 31.9988 38.2203 32.0788 37.2603 32.0788C36.0403 32.0788 35.0303 31.9188 34.2303 31.5987C33.4303 31.2587 32.7903 30.7987 32.3103 30.2187C31.8303 29.6187 31.4903 28.8987 31.2903 28.0587C31.1103 27.2187 31.0203 26.2887 31.0203 25.2687V12.0087Z" fill="white"/>
<path d="M82.3722 28.5987C82.8122 28.5987 83.2322 28.5887 83.6322 28.5687C84.0322 28.5487 84.3522 28.5187 84.5922 28.4787V25.0887C84.4122 25.0487 84.1422 25.0087 83.7822 24.9687C83.4222 24.9287 83.0922 24.9087 82.7922 24.9087C82.3722 24.9087 81.9722 24.9387 81.5922 24.9987C81.2322 25.0387 80.9122 25.1287 80.6322 25.2687C80.3522 25.4087 80.1322 25.5987 79.9722 25.8387C79.8122 26.0787 79.7322 26.3787 79.7322 26.7387C79.7322 27.4387 79.9622 27.9287 80.4222 28.2087C80.9022 28.4687 81.5522 28.5987 82.3722 28.5987ZM82.0122 15.5187C83.3322 15.5187 84.4322 15.6687 85.3122 15.9687C86.1922 16.2687 86.8922 16.6987 87.4122 17.2587C87.9522 17.8187 88.3322 18.4987 88.5522 19.2987C88.7722 20.0987 88.8822 20.9887 88.8822 21.9687V31.2687C88.2422 31.4087 87.3522 31.5687 86.2122 31.7488C85.0722 31.9488 83.6922 32.0488 82.0722 32.0488C81.0522 32.0488 80.1222 31.9588 79.2822 31.7788C78.4622 31.5987 77.7522 31.3087 77.1522 30.9087C76.5522 30.4887 76.0922 29.9487 75.7722 29.2887C75.4522 28.6287 75.2922 27.8187 75.2922 26.8587C75.2922 25.9387 75.4722 25.1587 75.8322 24.5187C76.2122 23.8787 76.7122 23.3687 77.3322 22.9887C77.9522 22.6087 78.6622 22.3387 79.4622 22.1787C80.2622 21.9987 81.0922 21.9087 81.9522 21.9087C82.5322 21.9087 83.0422 21.9387 83.4822 21.9987C83.9422 22.0387 84.3122 22.0987 84.5922 22.1787V21.7587C84.5922 20.9987 84.3622 20.3887 83.9022 19.9287C83.4422 19.4687 82.6422 19.2387 81.5022 19.2387C80.7422 19.2387 79.9922 19.2987 79.2522 19.4187C78.5122 19.5187 77.8722 19.6687 77.3322 19.8687L76.7622 16.2687C77.0222 16.1887 77.3422 16.1087 77.7222 16.0287C78.1222 15.9288 78.5522 15.8487 79.0122 15.7887C79.4722 15.7087 79.9522 15.6487 80.4522 15.6087C80.9722 15.5487 81.4922 15.5187 82.0122 15.5187ZM99.1942 20.7387L102.314 15.9387H106.934L101.534 23.5287C102.734 25.0287 103.824 26.4887 104.804 27.9087C105.784 29.3287 106.564 30.5987 107.144 31.7188H102.344C102.184 31.4187 101.984 31.0487 101.744 30.6087C101.504 30.1487 101.234 29.6787 100.934 29.1987C100.634 28.6987 100.314 28.2087 99.9742 27.7287C99.6542 27.2287 99.3342 26.7787 99.0142 26.3787C98.7142 26.7587 98.4042 27.1787 98.0842 27.6387C97.7842 28.0987 97.4942 28.5687 97.2142 29.0487C96.9342 29.5087 96.6542 29.9687 96.3742 30.4287C96.1142 30.8887 95.8842 31.3187 95.6842 31.7188H91.1242C91.3642 31.2187 91.6942 30.6287 92.1142 29.9487C92.5342 29.2687 92.9842 28.5687 93.4642 27.8487C93.9642 27.1087 94.4842 26.3787 95.0242 25.6587C95.5642 24.9187 96.0942 24.2287 96.6142 23.5887C95.7142 22.3287 94.8142 21.0587 93.9142 19.7787C93.0142 18.4787 92.1242 17.1987 91.2442 15.9387H96.0742L99.1942 20.7387Z" fill="white"/>
<path d="M52.7422 11.7188L60.9694 30.4688H44.5149L52.7422 11.7188Z" fill="#FEBA66"/>
<path d="M62.7422 11.7188L70.9694 30.4688H54.5149L62.7422 11.7188Z" fill="#EDA54C"/>
</svg>
