<svg width="160" height="36" viewBox="0 0 160 36" fill="none" xmlns="http://www.w3.org/2000/svg">
<path d="M49.2832 17.8907C50.4352 18.1607 51.3442 18.7187 52.0102 19.5647C52.6942 20.4107 53.0362 21.3917 53.0362 22.5077C53.0362 24.1457 52.4872 25.4237 51.3892 26.3417C50.3092 27.2597 48.7522 27.7188 46.7182 27.7188H37.8352V8.62975H46.5022C48.4462 8.62975 49.9492 9.05275 51.0112 9.89875C52.0732 10.7447 52.6042 11.9507 52.6042 13.5167C52.6042 14.6687 52.2982 15.6317 51.6862 16.4057C51.0742 17.1617 50.2732 17.6567 49.2832 17.8907ZM42.4522 16.4327H45.4762C47.0782 16.4327 47.8792 15.7487 47.8792 14.3807C47.8792 13.0127 47.0602 12.3287 45.4222 12.3287H42.4522V16.4327ZM45.7462 23.9657C47.4562 23.9657 48.3112 23.2637 48.3112 21.8597C48.3112 21.1757 48.0862 20.6447 47.6362 20.2667C47.1862 19.8707 46.5472 19.6727 45.7192 19.6727H42.4522V23.9657H45.7462ZM55.0428 8.41375C55.0428 7.71175 55.2948 7.13575 55.7988 6.68575C56.3028 6.21775 56.9688 5.98375 57.7968 5.98375C58.6248 5.98375 59.2908 6.21775 59.7948 6.68575C60.2988 7.13575 60.5508 7.71175 60.5508 8.41375C60.5508 9.09775 60.2988 9.67375 59.7948 10.1417C59.2908 10.5917 58.6248 10.8167 57.7968 10.8167C56.9688 10.8167 56.3028 10.5917 55.7988 10.1417C55.2948 9.67375 55.0428 9.09775 55.0428 8.41375ZM60.0918 12.6527V27.7188H55.4748V12.6527H60.0918ZM71.8115 23.7498V27.7188H69.7325C67.9685 27.7188 66.5915 27.2867 65.6015 26.4227C64.6295 25.5407 64.1435 24.0917 64.1435 22.0757V16.5407H62.1185V12.6527H64.1435V8.95375H68.7605V12.6527H71.7845V16.5407H68.7605V22.1567C68.7605 22.7507 68.8775 23.1647 69.1115 23.3987C69.3635 23.6327 69.7775 23.7498 70.3535 23.7498H71.8115ZM82.9385 23.7498V27.7188H80.8595C79.0955 27.7188 77.7185 27.2867 76.7285 26.4227C75.7565 25.5407 75.2705 24.0917 75.2705 22.0757V16.5407H73.2455V12.6527H75.2705V8.95375H79.8875V12.6527H82.9115V16.5407H79.8875V22.1567C79.8875 22.7507 80.0045 23.1647 80.2385 23.3987C80.4905 23.6327 80.9045 23.7498 81.4805 23.7498H82.9385ZM92.5804 12.4638C94.0744 12.4638 95.4064 12.7787 96.5764 13.4087C97.7644 14.0207 98.6914 14.9117 99.3574 16.0817C100.041 17.2517 100.383 18.6197 100.383 20.1857C100.383 21.7517 100.041 23.1197 99.3574 24.2897C98.6914 25.4597 97.7644 26.3597 96.5764 26.9897C95.4064 27.6017 94.0744 27.9078 92.5804 27.9078C91.0864 27.9078 89.7454 27.6017 88.5574 26.9897C87.3694 26.3597 86.4334 25.4597 85.7494 24.2897C85.0834 23.1197 84.7504 21.7517 84.7504 20.1857C84.7504 18.6197 85.0834 17.2517 85.7494 16.0817C86.4334 14.9117 87.3694 14.0207 88.5574 13.4087C89.7454 12.7787 91.0864 12.4638 92.5804 12.4638ZM92.5804 16.4597C91.6984 16.4597 90.9514 16.7837 90.3394 17.4317C89.7454 18.0617 89.4484 18.9797 89.4484 20.1857C89.4484 21.3917 89.7454 22.3097 90.3394 22.9397C90.9514 23.5697 91.6984 23.8847 92.5804 23.8847C93.4624 23.8847 94.2004 23.5697 94.7944 22.9397C95.3884 22.3097 95.6854 21.3917 95.6854 20.1857C95.6854 18.9797 95.3884 18.0617 94.7944 17.4317C94.2004 16.7837 93.4624 16.4597 92.5804 16.4597ZM107.395 15.4877C107.971 14.5697 108.709 13.8407 109.609 13.3007C110.527 12.7607 111.517 12.4907 112.579 12.4907V17.4317H111.256C110.032 17.4317 109.078 17.6927 108.394 18.2147C107.728 18.7367 107.395 19.6187 107.395 20.8607V27.7188H102.778V12.6527H107.395V15.4877ZM128.821 19.7808C128.821 20.1587 128.776 20.5727 128.686 21.0227H118.237C118.291 22.1567 118.579 22.9757 119.101 23.4797C119.623 23.9657 120.289 24.2087 121.099 24.2087C121.783 24.2087 122.35 24.0377 122.8 23.6957C123.25 23.3537 123.547 22.9127 123.691 22.3727H128.578C128.38 23.4347 127.948 24.3887 127.282 25.2347C126.616 26.0627 125.77 26.7197 124.744 27.2057C123.718 27.6737 122.575 27.9078 121.315 27.9078C119.839 27.9078 118.525 27.6017 117.373 26.9897C116.239 26.3597 115.348 25.4597 114.7 24.2897C114.052 23.1197 113.728 21.7517 113.728 20.1857C113.728 18.6017 114.043 17.2337 114.673 16.0817C115.321 14.9117 116.221 14.0207 117.373 13.4087C118.525 12.7787 119.839 12.4638 121.315 12.4638C122.809 12.4638 124.123 12.7697 125.257 13.3817C126.391 13.9937 127.264 14.8577 127.876 15.9737C128.506 17.0717 128.821 18.3407 128.821 19.7808ZM124.15 19.0787C124.168 18.0887 123.898 17.3507 123.34 16.8647C122.8 16.3607 122.125 16.1087 121.315 16.1087C120.469 16.1087 119.767 16.3607 119.209 16.8647C118.651 17.3687 118.336 18.1067 118.264 19.0787H124.15ZM140.786 12.4907C142.514 12.4907 143.882 13.0667 144.89 14.2188C145.916 15.3707 146.429 16.9547 146.429 18.9707V27.7188H141.812V19.5107C141.812 18.5027 141.542 17.7197 141.002 17.1617C140.48 16.5857 139.778 16.2977 138.896 16.2977C137.96 16.2977 137.213 16.5947 136.655 17.1887C136.115 17.7827 135.845 18.6287 135.845 19.7267V27.7188H131.228V12.6527H135.845V15.4067C136.277 14.5067 136.916 13.7957 137.762 13.2737C138.626 12.7517 139.634 12.4907 140.786 12.4907ZM158.006 23.7498V27.7188H155.927C154.163 27.7188 152.786 27.2867 151.796 26.4227C150.824 25.5407 150.338 24.0917 150.338 22.0757V16.5407H148.313V12.6527H150.338V8.95375H154.955V12.6527H157.979V16.5407H154.955V22.1567C154.955 22.7507 155.072 23.1647 155.306 23.3987C155.558 23.6327 155.972 23.7498 156.548 23.7498H158.006Z" fill="white"/>
<rect x="0.242188" y="3.71875" width="9" height="9" fill="#3EBA59"/>
<rect x="0.242188" y="12.7188" width="9" height="10" fill="#83EBFF"/>
<rect x="0.242188" y="22.7188" width="9" height="9" fill="#20C1E1"/>
<rect x="9.24219" y="3.71875" width="10" height="9" fill="#83EBFF"/>
<rect x="9.24219" y="22.7188" width="10" height="9" fill="#83EBFF"/>
<rect x="19.2422" y="3.71875" width="9" height="9" fill="#20C1E1"/>
<rect x="19.2422" y="12.7188" width="9" height="10" fill="#83EBFF"/>
<rect x="19.2422" y="22.7188" width="9" height="9" fill="#3EBA59"/>
<rect x="5.24219" y="8.71875" width="18" height="18" fill="white"/>
</svg>
