<svg width="129" height="34" viewBox="0 0 129 34" fill="none" xmlns="http://www.w3.org/2000/svg">
<path d="M27.6137 33.8737H6.51839C3.05171 33.8737 0.242188 31.0923 0.242188 27.6603V6.77595C0.242188 3.34394 3.05171 0.5625 6.51839 0.5625H27.6137C31.0804 0.5625 33.8899 3.34394 33.8899 6.77595V27.6603C33.8899 31.0923 31.0804 33.8737 27.6137 33.8737Z" fill="#7782FF"/>
<path d="M23.1276 17.5283C23.7276 18.2731 24.0324 19.1405 24.0324 20.1211C24.0324 21.5637 23.5467 22.6951 22.5752 23.4966C21.6038 24.298 20.2133 24.7129 18.4038 24.7129H10.499V7.88281H18.2133C19.9467 7.88281 21.28 8.25996 22.2229 9.00482C23.1657 9.74968 23.6419 10.8151 23.6419 12.1917C23.6419 13.21 23.3657 14.0491 22.8229 14.728C22.28 15.4068 21.5657 15.8405 20.68 16.048C21.7181 16.2931 22.5276 16.7834 23.1276 17.5283ZM14.6038 14.7657H17.299C18.7276 14.7657 19.4419 14.1623 19.4419 12.9554C19.4419 11.7485 18.7086 11.1451 17.2514 11.1451H14.6038V14.7657ZM19.8228 19.5554C19.8228 18.952 19.6229 18.4806 19.2229 18.1411C18.8229 17.8017 18.2514 17.632 17.5181 17.632H14.6133V21.4128H17.5467C19.0609 21.4034 19.8228 20.7906 19.8228 19.5554Z" fill="white"/>
<path d="M53.385 24.7129L49.7088 18.358H48.7754V24.7129H44.6611V7.88281H51.6802C53.0231 7.88281 54.1659 8.1091 55.0897 8.5711C56.0231 9.0331 56.7183 9.66481 57.185 10.4662C57.6516 11.2677 57.8802 12.1823 57.8802 13.2194C57.8802 14.4451 57.5373 15.4823 56.8612 16.3403C56.1754 17.1983 55.1945 17.7828 53.8897 18.1034L57.9278 24.7223H53.385V24.7129ZM48.7754 15.5765H51.3183C52.1373 15.5765 52.7373 15.3974 53.1183 15.0391C53.4993 14.6808 53.6992 14.1528 53.6992 13.4551C53.6992 12.7857 53.4992 12.2671 53.1088 11.8805C52.7183 11.5034 52.1183 11.3054 51.3183 11.3054H48.7754V15.5765Z" fill="white"/>
<path d="M76.4897 21.6494H70.1183L69.0611 24.7231H64.7373L70.9659 8.01562H75.6992L81.9278 24.7231H77.5564L76.4897 21.6494ZM75.4326 18.5474L73.3183 12.3622L71.1754 18.5474H75.4326Z" fill="white"/>
<path d="M104.623 24.7129H100.509L93.6328 14.3791V24.7129H89.5186V7.88281H93.6328L100.509 18.3108V7.88281H104.623V24.7129Z" fill="white"/>
<path d="M127.69 20.6569C126.975 21.9298 125.947 22.9292 124.614 23.6458C123.271 24.3624 121.699 24.7207 119.89 24.7207H113.471V7.89062H119.89C121.718 7.89062 123.299 8.23948 124.623 8.9372C125.956 9.63491 126.975 10.6155 127.69 11.8883C128.404 13.1612 128.756 14.6132 128.756 16.2726C128.756 17.9132 128.395 19.3747 127.69 20.6569ZM123.261 19.8084C124.147 18.9692 124.595 17.7812 124.595 16.2632C124.595 14.7358 124.147 13.5572 123.261 12.7181C122.375 11.8789 121.128 11.4546 119.518 11.4546H117.575V21.0718H119.518C121.128 21.0718 122.375 20.6569 123.261 19.8084Z" fill="white"/>
</svg>
