<svg width="126" height="49" viewBox="0 0 126 49" fill="none" xmlns="http://www.w3.org/2000/svg">
<path d="M8.558 12.906C8.46467 12.682 8.33867 12.3973 8.18 12.052C8.03067 11.7067 7.86733 11.3333 7.69 10.932C7.51267 10.5307 7.32133 10.12 7.116 9.7C6.92 9.27067 6.73333 8.86933 6.556 8.496C6.37867 8.11333 6.21067 7.77267 6.052 7.474C5.90267 7.17533 5.78133 6.94667 5.688 6.788C5.58533 7.88933 5.50133 9.084 5.436 10.372C5.37067 11.6507 5.31467 12.9433 5.268 14.25H3.938C3.97533 13.41 4.01733 12.5653 4.064 11.716C4.11067 10.8573 4.162 10.0173 4.218 9.196C4.28333 8.36533 4.34867 7.558 4.414 6.774C4.48867 5.99 4.568 5.248 4.652 4.548H5.842C6.094 4.95867 6.36467 5.444 6.654 6.004C6.94333 6.564 7.23267 7.152 7.522 7.768C7.81133 8.37467 8.09133 8.986 8.362 9.602C8.63267 10.2087 8.88 10.764 9.104 11.268C9.328 10.764 9.57533 10.2087 9.846 9.602C10.1167 8.986 10.3967 8.37467 10.686 7.768C10.9753 7.152 11.2647 6.564 11.554 6.004C11.8433 5.444 12.114 4.95867 12.366 4.548H13.556C13.8733 7.67467 14.1113 10.9087 14.27 14.25H12.94C12.8933 12.9433 12.8373 11.6507 12.772 10.372C12.7067 9.084 12.6227 7.88933 12.52 6.788C12.4267 6.94667 12.3007 7.17533 12.142 7.474C11.9927 7.77267 11.8293 8.11333 11.652 8.496C11.4747 8.86933 11.2833 9.27067 11.078 9.7C10.882 10.12 10.6953 10.5307 10.518 10.932C10.3407 11.3333 10.1727 11.7067 10.014 12.052C9.86467 12.3973 9.74333 12.682 9.65 12.906H8.558ZM22.7413 10.61C22.7413 11.1887 22.6573 11.7113 22.4893 12.178C22.3213 12.6447 22.0833 13.046 21.7753 13.382C21.4766 13.718 21.1173 13.9793 20.6973 14.166C20.2773 14.3433 19.82 14.432 19.3253 14.432C18.8306 14.432 18.3733 14.3433 17.9533 14.166C17.5333 13.9793 17.1693 13.718 16.8613 13.382C16.5626 13.046 16.3293 12.6447 16.1613 12.178C15.9933 11.7113 15.9093 11.1887 15.9093 10.61C15.9093 10.0407 15.9933 9.52267 16.1613 9.056C16.3293 8.58 16.5626 8.174 16.8613 7.838C17.1693 7.502 17.5333 7.24533 17.9533 7.068C18.3733 6.88133 18.8306 6.788 19.3253 6.788C19.82 6.788 20.2773 6.88133 20.6973 7.068C21.1173 7.24533 21.4766 7.502 21.7753 7.838C22.0833 8.174 22.3213 8.58 22.4893 9.056C22.6573 9.52267 22.7413 10.0407 22.7413 10.61ZM21.3833 10.61C21.3833 9.78867 21.1966 9.14 20.8233 8.664C20.4593 8.17867 19.96 7.936 19.3253 7.936C18.6906 7.936 18.1866 8.17867 17.8133 8.664C17.4493 9.14 17.2673 9.78867 17.2673 10.61C17.2673 11.4313 17.4493 12.0847 17.8133 12.57C18.1866 13.046 18.6906 13.284 19.3253 13.284C19.96 13.284 20.4593 13.046 20.8233 12.57C21.1966 12.0847 21.3833 11.4313 21.3833 10.61ZM29.2771 8.51C29.1185 8.37933 28.8898 8.25333 28.5911 8.132C28.2925 8.01067 27.9658 7.95 27.6111 7.95C27.2378 7.95 26.9158 8.02 26.6451 8.16C26.3838 8.29067 26.1691 8.47733 26.0011 8.72C25.8331 8.95333 25.7118 9.23333 25.6371 9.56C25.5625 9.88667 25.5251 10.2367 25.5251 10.61C25.5251 11.4593 25.7351 12.1173 26.1551 12.584C26.5751 13.0413 27.1351 13.27 27.8351 13.27C28.1898 13.27 28.4838 13.256 28.7171 13.228C28.9598 13.1907 29.1465 13.1533 29.2771 13.116V8.51ZM29.2771 3.61L30.5791 3.386V14.04C30.2805 14.124 29.8978 14.208 29.4311 14.292C28.9645 14.376 28.4278 14.418 27.8211 14.418C27.2611 14.418 26.7571 14.3293 26.3091 14.152C25.8611 13.9747 25.4785 13.7227 25.1611 13.396C24.8438 13.0693 24.5965 12.6727 24.4191 12.206C24.2511 11.73 24.1671 11.198 24.1671 10.61C24.1671 10.05 24.2371 9.53667 24.3771 9.07C24.5265 8.60333 24.7411 8.202 25.0211 7.866C25.3011 7.53 25.6418 7.26867 26.0431 7.082C26.4538 6.89533 26.9205 6.802 27.4431 6.802C27.8631 6.802 28.2318 6.858 28.5491 6.97C28.8758 7.082 29.1185 7.18933 29.2771 7.292V3.61ZM32.4113 10.624C32.4113 9.98 32.5046 9.42 32.6913 8.944C32.8779 8.45867 33.1253 8.05733 33.4333 7.74C33.7413 7.42267 34.0959 7.18467 34.4973 7.026C34.8986 6.86733 35.3093 6.788 35.7293 6.788C36.7093 6.788 37.4606 7.096 37.9833 7.712C38.5059 8.31867 38.7673 9.24733 38.7673 10.498C38.7673 10.554 38.7673 10.6287 38.7673 10.722C38.7673 10.806 38.7626 10.8853 38.7533 10.96H33.7693C33.8253 11.716 34.0446 12.29 34.4273 12.682C34.8099 13.074 35.4073 13.27 36.2193 13.27C36.6766 13.27 37.0593 13.2327 37.3673 13.158C37.6846 13.074 37.9226 12.9947 38.0813 12.92L38.2633 14.012C38.1046 14.096 37.8246 14.1847 37.4233 14.278C37.0313 14.3713 36.5833 14.418 36.0793 14.418C35.4446 14.418 34.8939 14.3247 34.4273 14.138C33.9699 13.942 33.5919 13.676 33.2933 13.34C32.9946 13.004 32.7706 12.6073 32.6213 12.15C32.4813 11.6833 32.4113 11.1747 32.4113 10.624ZM37.4093 9.91C37.4186 9.322 37.2693 8.84133 36.9613 8.468C36.6626 8.08533 36.2473 7.894 35.7153 7.894C35.4166 7.894 35.1506 7.95467 34.9173 8.076C34.6933 8.188 34.5019 8.33733 34.3433 8.524C34.1846 8.71067 34.0586 8.92533 33.9653 9.168C33.8813 9.41067 33.8253 9.658 33.7973 9.91H37.4093ZM43.3256 6.816C43.4376 6.816 43.5636 6.82533 43.7036 6.844C43.8529 6.85333 43.9976 6.872 44.1376 6.9C44.2776 6.91867 44.4036 6.942 44.5156 6.97C44.6369 6.98867 44.7256 7.00733 44.7816 7.026L44.5576 8.16C44.4549 8.12267 44.2822 8.08067 44.0396 8.034C43.8062 7.978 43.5029 7.95 43.1296 7.95C42.8869 7.95 42.6442 7.978 42.4016 8.034C42.1682 8.08067 42.0142 8.11333 41.9396 8.132V14.25H40.6376V7.278C40.9456 7.166 41.3282 7.06333 41.7856 6.97C42.2429 6.86733 42.7562 6.816 43.3256 6.816ZM46.038 7.18C46.3366 7.10533 46.7333 7.026 47.228 6.942C47.7226 6.858 48.292 6.816 48.936 6.816C49.5146 6.816 49.9953 6.9 50.378 7.068C50.7606 7.22667 51.064 7.45533 51.288 7.754C51.5213 8.04333 51.6846 8.39333 51.778 8.804C51.8713 9.21467 51.918 9.66733 51.918 10.162V14.25H50.616V10.442C50.616 9.994 50.5833 9.61133 50.518 9.294C50.462 8.97667 50.364 8.72 50.224 8.524C50.084 8.328 49.8973 8.188 49.664 8.104C49.4306 8.01067 49.1413 7.964 48.796 7.964C48.656 7.964 48.5113 7.96867 48.362 7.978C48.2126 7.98733 48.068 8.00133 47.928 8.02C47.7973 8.02933 47.676 8.04333 47.564 8.062C47.4613 8.08067 47.3866 8.09467 47.34 8.104V14.25H46.038V7.18Z" fill="white"/>
<path d="M11.88 40.67C8.5 40.67 5.92 39.73 4.14 37.85C2.38 35.97 1.5 33.3 1.5 29.84C1.5 28.12 1.77 26.59 2.31 25.25C2.85 23.89 3.59 22.75 4.53 21.83C5.47 20.89 6.59 20.18 7.89 19.7C9.19 19.22 10.6 18.98 12.12 18.98C13 18.98 13.8 19.05 14.52 19.19C15.24 19.31 15.87 19.46 16.41 19.64C16.95 19.8 17.4 19.97 17.76 20.15C18.12 20.33 18.38 20.47 18.54 20.57L17.19 24.35C16.55 24.01 15.8 23.72 14.94 23.48C14.1 23.24 13.14 23.12 12.06 23.12C11.34 23.12 10.63 23.24 9.93 23.48C9.25 23.72 8.64 24.11 8.1 24.65C7.58 25.17 7.16 25.85 6.84 26.69C6.52 27.53 6.36 28.55 6.36 29.75C6.36 30.71 6.46 31.61 6.66 32.45C6.88 33.27 7.22 33.98 7.68 34.58C8.16 35.18 8.78 35.66 9.54 36.02C10.3 36.36 11.22 36.53 12.3 36.53C12.98 36.53 13.59 36.49 14.13 36.41C14.67 36.33 15.15 36.24 15.57 36.14C15.99 36.02 16.36 35.89 16.68 35.75C17 35.61 17.29 35.48 17.55 35.36L18.84 39.11C18.18 39.51 17.25 39.87 16.05 40.19C14.85 40.51 13.46 40.67 11.88 40.67ZM31.0631 28.43C30.6631 28.33 30.1931 28.23 29.6531 28.13C29.1131 28.01 28.5331 27.95 27.9131 27.95C27.6331 27.95 27.2931 27.98 26.8931 28.04C26.5131 28.08 26.2231 28.13 26.0231 28.19V40.25H21.5531V25.31C22.3531 25.03 23.2931 24.77 24.3731 24.53C25.4731 24.27 26.6931 24.14 28.0331 24.14C28.2731 24.14 28.5631 24.16 28.9031 24.2C29.2431 24.22 29.5831 24.26 29.9231 24.32C30.2631 24.36 30.6031 24.42 30.9431 24.5C31.2831 24.56 31.5731 24.64 31.8131 24.74L31.0631 28.43ZM49.1569 24.47C48.2569 27.51 47.3169 30.36 46.3369 33.02C45.3569 35.68 44.2869 38.26 43.1269 40.76C42.7069 41.66 42.2869 42.42 41.8669 43.04C41.4469 43.68 40.9869 44.2 40.4869 44.6C39.9869 45.02 39.4169 45.32 38.7769 45.5C38.1569 45.7 37.4269 45.8 36.5869 45.8C35.8869 45.8 35.2369 45.73 34.6369 45.59C34.0569 45.47 33.5769 45.33 33.1969 45.17L33.9769 41.6C34.4369 41.76 34.8469 41.87 35.2069 41.93C35.5669 41.99 35.9469 42.02 36.3469 42.02C37.1469 42.02 37.7569 41.8 38.1769 41.36C38.6169 40.94 38.9869 40.35 39.2869 39.59C38.2669 37.59 37.2469 35.35 36.2269 32.87C35.2069 30.37 34.2469 27.57 33.3469 24.47H38.0869C38.2869 25.25 38.5169 26.1 38.7769 27.02C39.0569 27.92 39.3469 28.84 39.6469 29.78C39.9469 30.7 40.2469 31.6 40.5469 32.48C40.8669 33.36 41.1669 34.16 41.4469 34.88C41.7069 34.16 41.9769 33.36 42.2569 32.48C42.5369 31.6 42.8069 30.7 43.0669 29.78C43.3469 28.84 43.6069 27.92 43.8469 27.02C44.1069 26.1 44.3369 25.25 44.5369 24.47H49.1569ZM61.6631 32.48C61.6631 31.1 61.3531 30 60.7331 29.18C60.1131 28.34 59.1931 27.92 57.9731 27.92C57.5731 27.92 57.2031 27.94 56.8631 27.98C56.5231 28 56.2431 28.03 56.0231 28.07V36.14C56.3031 36.32 56.6631 36.47 57.1031 36.59C57.5631 36.71 58.0231 36.77 58.4831 36.77C60.6031 36.77 61.6631 35.34 61.6631 32.48ZM66.2231 32.36C66.2231 33.58 66.0731 34.69 65.7731 35.69C65.4731 36.69 65.0331 37.55 64.4531 38.27C63.8731 38.99 63.1531 39.55 62.2931 39.95C61.4331 40.35 60.4431 40.55 59.3231 40.55C58.7031 40.55 58.1231 40.49 57.5831 40.37C57.0431 40.25 56.5231 40.08 56.0231 39.86V45.8H51.5531V25.01C51.9531 24.89 52.4131 24.78 52.9331 24.68C53.4531 24.56 53.9931 24.46 54.5531 24.38C55.1331 24.3 55.7131 24.24 56.2931 24.2C56.8931 24.14 57.4631 24.11 58.0031 24.11C59.3031 24.11 60.4631 24.31 61.4831 24.71C62.5031 25.09 63.3631 25.64 64.0631 26.36C64.7631 27.06 65.2931 27.92 65.6531 28.94C66.0331 29.96 66.2231 31.1 66.2231 32.36ZM69.5086 20.54L73.9786 19.82V24.47H79.3486V28.19H73.9786V33.74C73.9786 34.68 74.1386 35.43 74.4586 35.99C74.7986 36.55 75.4686 36.83 76.4686 36.83C76.9486 36.83 77.4386 36.79 77.9386 36.71C78.4586 36.61 78.9286 36.48 79.3486 36.32L79.9786 39.8C79.4386 40.02 78.8386 40.21 78.1786 40.37C77.5186 40.53 76.7086 40.61 75.7486 40.61C74.5286 40.61 73.5186 40.45 72.7186 40.13C71.9186 39.79 71.2786 39.33 70.7986 38.75C70.3186 38.15 69.9786 37.43 69.7786 36.59C69.5986 35.75 69.5086 34.82 69.5086 33.8V20.54ZM97.1627 32.33C97.1627 33.57 96.9827 34.71 96.6227 35.75C96.2627 36.77 95.7427 37.65 95.0627 38.39C94.3827 39.11 93.5627 39.67 92.6027 40.07C91.6627 40.47 90.6027 40.67 89.4227 40.67C88.2627 40.67 87.2027 40.47 86.2427 40.07C85.3027 39.67 84.4927 39.11 83.8127 38.39C83.1327 37.65 82.6027 36.77 82.2227 35.75C81.8427 34.71 81.6527 33.57 81.6527 32.33C81.6527 31.09 81.8427 29.96 82.2227 28.94C82.6227 27.92 83.1627 27.05 83.8427 26.33C84.5427 25.61 85.3627 25.05 86.3027 24.65C87.2627 24.25 88.3027 24.05 89.4227 24.05C90.5627 24.05 91.6027 24.25 92.5427 24.65C93.5027 25.05 94.3227 25.61 95.0027 26.33C95.6827 27.05 96.2127 27.92 96.5927 28.94C96.9727 29.96 97.1627 31.09 97.1627 32.33ZM92.6027 32.33C92.6027 30.95 92.3227 29.87 91.7627 29.09C91.2227 28.29 90.4427 27.89 89.4227 27.89C88.4027 27.89 87.6127 28.29 87.0527 29.09C86.4927 29.87 86.2127 30.95 86.2127 32.33C86.2127 33.71 86.4927 34.81 87.0527 35.63C87.6127 36.43 88.4027 36.83 89.4227 36.83C90.4427 36.83 91.2227 36.43 91.7627 35.63C92.3227 34.81 92.6027 33.71 92.6027 32.33Z" fill="white"/>
<path d="M114 43.25V30.3065L104 21.25V43.25H114Z" fill="#27CAEA"/>
<path d="M125.951 42.9362V30.1773L116.295 21.25V42.9362H125.951Z" fill="#FFB04E"/>
</svg>
