<svg width="99" height="40" viewBox="0 0 99 40" fill="none" xmlns="http://www.w3.org/2000/svg">
<path d="M12.1222 32.1388C8.74219 32.1388 6.16219 31.1987 4.38219 29.3187C2.62219 27.4387 1.74219 24.7687 1.74219 21.3087C1.74219 19.5887 2.01219 18.0587 2.55219 16.7188C3.09219 15.3587 3.83219 14.2187 4.77219 13.2987C5.71219 12.3587 6.83219 11.6487 8.13219 11.1687C9.43219 10.6887 10.8422 10.4487 12.3622 10.4487C13.2422 10.4487 14.0422 10.5187 14.7622 10.6587C15.4822 10.7787 16.1122 10.9287 16.6522 11.1087C17.1922 11.2687 17.6422 11.4387 18.0022 11.6187C18.3622 11.7987 18.6222 11.9387 18.7822 12.0387L17.4322 15.8187C16.7922 15.4787 16.0422 15.1887 15.1822 14.9487C14.3422 14.7087 13.3822 14.5887 12.3022 14.5887C11.5822 14.5887 10.8722 14.7087 10.1722 14.9487C9.49219 15.1887 8.88219 15.5787 8.34219 16.1187C7.82219 16.6387 7.40219 17.3187 7.08219 18.1587C6.76219 18.9987 6.60219 20.0187 6.60219 21.2187C6.60219 22.1787 6.70219 23.0787 6.90219 23.9187C7.12219 24.7387 7.46219 25.4487 7.92219 26.0487C8.40219 26.6487 9.02219 27.1287 9.78219 27.4887C10.5422 27.8287 11.4622 27.9987 12.5422 27.9987C13.2222 27.9987 13.8322 27.9587 14.3722 27.8787C14.9122 27.7987 15.3922 27.7087 15.8122 27.6087C16.2322 27.4887 16.6022 27.3587 16.9222 27.2187C17.2422 27.0787 17.5322 26.9487 17.7922 26.8287L19.0822 30.5787C18.4222 30.9787 17.4922 31.3387 16.2922 31.6587C15.0922 31.9788 13.7022 32.1388 12.1222 32.1388ZM36.2038 23.7988C36.2038 25.0387 36.0238 26.1787 35.6638 27.2187C35.3038 28.2387 34.7838 29.1187 34.1038 29.8587C33.4238 30.5787 32.6038 31.1387 31.6438 31.5387C30.7038 31.9388 29.6438 32.1388 28.4638 32.1388C27.3038 32.1388 26.2438 31.9388 25.2838 31.5387C24.3438 31.1387 23.5338 30.5787 22.8538 29.8587C22.1738 29.1187 21.6438 28.2387 21.2638 27.2187C20.8838 26.1787 20.6938 25.0387 20.6938 23.7988C20.6938 22.5587 20.8838 21.4287 21.2638 20.4087C21.6638 19.3887 22.2038 18.5187 22.8838 17.7987C23.5838 17.0787 24.4038 16.5187 25.3438 16.1187C26.3038 15.7187 27.3438 15.5187 28.4638 15.5187C29.6038 15.5187 30.6438 15.7187 31.5838 16.1187C32.5438 16.5187 33.3638 17.0787 34.0438 17.7987C34.7238 18.5187 35.2538 19.3887 35.6338 20.4087C36.0138 21.4287 36.2038 22.5587 36.2038 23.7988ZM31.6438 23.7988C31.6438 22.4187 31.3638 21.3387 30.8038 20.5587C30.2638 19.7587 29.4838 19.3587 28.4638 19.3587C27.4438 19.3587 26.6538 19.7587 26.0938 20.5587C25.5338 21.3387 25.2538 22.4187 25.2538 23.7988C25.2538 25.1787 25.5338 26.2787 26.0938 27.0987C26.6538 27.8987 27.4438 28.2987 28.4638 28.2987C29.4838 28.2987 30.2638 27.8987 30.8038 27.0987C31.3638 26.2787 31.6438 25.1787 31.6438 23.7988ZM44.1364 31.7188H39.6664V15.9387H44.1364V31.7188ZM44.5564 11.3787C44.5564 12.1987 44.2864 12.8487 43.7464 13.3287C43.2264 13.7887 42.6064 14.0187 41.8864 14.0187C41.1664 14.0187 40.5364 13.7887 39.9964 13.3287C39.4764 12.8487 39.2164 12.1987 39.2164 11.3787C39.2164 10.5587 39.4764 9.91875 39.9964 9.45875C40.5364 8.97875 41.1664 8.73875 41.8864 8.73875C42.6064 8.73875 43.2264 8.97875 43.7464 9.45875C44.2864 9.91875 44.5564 10.5587 44.5564 11.3787ZM48.3383 16.4787C49.0983 16.2587 50.0783 16.0587 51.2783 15.8788C52.4783 15.6787 53.7383 15.5787 55.0583 15.5787C56.3983 15.5787 57.5083 15.7587 58.3883 16.1187C59.2883 16.4587 59.9983 16.9487 60.5183 17.5887C61.0383 18.2287 61.4083 18.9887 61.6283 19.8687C61.8483 20.7487 61.9583 21.7287 61.9583 22.8087V31.7188H57.4883V23.3487C57.4883 21.9087 57.2983 20.8887 56.9183 20.2887C56.5383 19.6887 55.8283 19.3887 54.7883 19.3887C54.4683 19.3887 54.1283 19.4087 53.7683 19.4487C53.4083 19.4687 53.0883 19.4987 52.8083 19.5387V31.7188H48.3383V16.4787Z" fill="white"/>
<path d="M72.2743 20.7387L75.3943 15.9387H80.0143L74.6143 23.5287C75.8143 25.0287 76.9043 26.4887 77.8843 27.9087C78.8643 29.3287 79.6443 30.5987 80.2243 31.7188H75.4243C75.2643 31.4187 75.0643 31.0487 74.8243 30.6087C74.5843 30.1487 74.3143 29.6787 74.0143 29.1987C73.7143 28.6987 73.3943 28.2087 73.0543 27.7287C72.7343 27.2287 72.4143 26.7787 72.0943 26.3787C71.7943 26.7587 71.4843 27.1787 71.1643 27.6387C70.8643 28.0987 70.5743 28.5687 70.2943 29.0487C70.0143 29.5087 69.7343 29.9687 69.4543 30.4287C69.1943 30.8887 68.9643 31.3187 68.7643 31.7188H64.2043C64.4443 31.2187 64.7743 30.6287 65.1943 29.9487C65.6143 29.2687 66.0643 28.5687 66.5443 27.8487C67.0443 27.1087 67.5643 26.3787 68.1043 25.6587C68.6443 24.9187 69.1743 24.2287 69.6943 23.5887C68.7943 22.3287 67.8943 21.0587 66.9943 19.7787C66.0943 18.4787 65.2043 17.1987 64.3243 15.9387H69.1543L72.2743 20.7387ZM97.358 15.9387C96.458 18.9787 95.518 21.8287 94.538 24.4887C93.558 27.1487 92.488 29.7287 91.328 32.2288C90.908 33.1288 90.488 33.8888 90.068 34.5088C89.648 35.1488 89.188 35.6688 88.688 36.0688C88.188 36.4888 87.618 36.7888 86.978 36.9688C86.358 37.1688 85.628 37.2688 84.788 37.2688C84.088 37.2688 83.438 37.1988 82.838 37.0588C82.258 36.9388 81.778 36.7988 81.398 36.6388L82.178 33.0688C82.638 33.2288 83.048 33.3388 83.408 33.3988C83.768 33.4588 84.148 33.4888 84.548 33.4888C85.348 33.4888 85.958 33.2688 86.378 32.8288C86.818 32.4088 87.188 31.8187 87.488 31.0587C86.468 29.0587 85.448 26.8187 84.428 24.3387C83.408 21.8387 82.448 19.0387 81.548 15.9387H86.288C86.488 16.7187 86.718 17.5687 86.978 18.4887C87.258 19.3887 87.548 20.3087 87.848 21.2487C88.148 22.1687 88.448 23.0687 88.748 23.9487C89.068 24.8287 89.368 25.6287 89.648 26.3487C89.908 25.6287 90.178 24.8287 90.458 23.9487C90.738 23.0687 91.008 22.1687 91.268 21.2487C91.548 20.3087 91.808 19.3887 92.048 18.4887C92.308 17.5687 92.538 16.7187 92.738 15.9387H97.358Z" fill="#7782FF"/>
</svg>
