<svg width="150" height="49" viewBox="0 0 150 49" fill="none" xmlns="http://www.w3.org/2000/svg">
<path d="M149.053 7.70916C146.549 6.65313 144 5.83054 141.417 5.1858C138.846 4.50772 136.241 4.02973 133.625 3.69625C132.322 3.49616 130.997 3.4517 129.695 3.29607C128.381 3.26272 127.079 3.12933 125.765 3.18491C125.114 3.19602 124.451 3.19602 123.8 3.18491C123.149 3.18491 122.486 3.25161 121.835 3.27384C121.184 3.3183 120.521 3.32942 119.87 3.39612L117.916 3.62955C115.3 3.84076 112.762 4.37433 110.225 5.03018C107.654 5.64156 105.217 6.50862 102.623 7.37567C99.9621 8.25385 97.0764 8.78742 94.1795 8.38724C92.7535 8.1538 91.3162 7.65358 90.1822 6.76429C89.0256 5.88612 88.2397 4.68558 87.7568 3.42946C88.5541 4.52995 89.5422 5.43036 90.6762 5.98616C91.8103 6.54197 93.0566 6.7754 94.303 6.76429C96.8181 6.76429 99.3108 5.96393 101.669 4.96348C104.072 3.82964 106.71 2.82919 109.338 2.0066C111.988 1.21736 114.75 0.617092 117.512 0.328074C123.025 -0.249963 128.662 -0.11657 134.063 1.15066C136.769 1.71758 139.407 2.58464 141.934 3.65178C144.471 4.74116 146.919 6.00839 149.053 7.70916Z" fill="#FEBA66"/>
<path d="M0.756836 40.3359C3.7099 41.5587 6.7191 42.5035 9.78444 43.2261C12.8273 43.982 15.9264 44.5155 19.0254 44.849C20.5749 45.0602 22.1357 45.0824 23.674 45.227C25.2347 45.2381 26.7842 45.3604 28.3337 45.2714L30.658 45.2158C31.4328 45.2047 32.2075 45.1047 32.9823 45.0602C33.757 44.9935 34.5318 44.9602 35.2953 44.8601L37.5971 44.5378C40.6849 44.2043 43.6829 43.4929 46.6697 42.6369C49.6901 41.8143 52.5421 40.7249 55.5625 39.5911C58.6503 38.4684 61.9964 37.7347 65.3874 38.0904C67.0604 38.3016 68.7446 38.8352 70.1145 39.8134C71.4956 40.7805 72.4837 42.1589 73.1125 43.604C72.1693 42.3145 70.9903 41.2585 69.6317 40.6027C68.273 39.9468 66.7797 39.68 65.2975 39.7245C62.2995 39.769 59.3465 40.7583 56.5731 42.0033C53.7548 43.3817 50.7006 44.6267 47.6241 45.6605C44.525 46.6498 41.3249 47.4391 38.0799 47.8392C31.6236 48.6841 25.0101 48.6952 18.6324 47.4168C15.4323 46.8388 12.3108 45.9384 9.29039 44.7934C6.29241 43.604 3.36182 42.2145 0.756836 40.3359Z" fill="#FEBA66"/>
<path d="M4.17684 30L1.95684 27.78V17.48L4.17684 15.26H11.1368L13.1568 17.28L11.5768 18.88L10.1168 17.46H5.33684L4.45684 18.34L4.47684 26.92L5.33684 27.8H10.2968L11.7568 26.36L13.3368 27.98L11.3168 30H4.17684ZM17.3651 30L15.1451 27.78V19.54H17.5651V27.2L18.4051 28.12H20.4251L22.5451 26.04V19.54H24.9651V30H22.5451V28.5L21.0251 30H17.3651ZM27.96 30V19.54H30.38V21.4L32.26 19.54H34.62V21.96H32.28L30.38 23.86V30H27.96ZM36.3193 30V19.54H38.7393V21.4L40.6193 19.54H42.9793V21.96H40.6393L38.7393 23.86V30H36.3193ZM46.4839 30L44.2639 27.78V21.78L46.4839 19.54H51.2839L53.5039 21.78V25.66H46.6839V27.14L47.5639 28.02H53.3239V30H46.4839ZM46.6839 23.8H51.0839V22.3L50.2039 21.42H47.5639L46.6839 22.3V23.8ZM56.2998 30V19.54H58.7198V21.4L60.5998 19.54H64.3398L66.5598 21.78V30H64.1398V22.34L63.2998 21.42H61.1798L58.7198 23.86V30H56.2998ZM71.4839 30L69.2639 27.78V21.78L71.4839 19.54H76.4839L78.4839 21.5V23.46H76.0639V22.3L75.1839 21.42H72.5639L71.6839 22.3V27.14L72.5639 28.02H78.4039V30H71.4839ZM82.3776 33.74L84.2176 29.4H83.2976L79.2576 19.54H81.9176L84.7176 27.02H85.1976L87.9976 19.54H90.6576L84.8176 33.74H82.3776ZM99.1806 30L95.8006 15.26H98.4606L100.821 27.62H101.301L103.661 15.26H105.901L108.261 27.62H108.741L111.101 15.26H113.761L110.361 30H106.581L104.781 20.7L102.981 30H99.1806ZM116.116 30L113.896 27.78V25.52L116.116 23.28H121.176V22.4L120.296 21.52H115.276V19.54H121.376L123.596 21.78V30H121.176V28.48L119.636 30H116.116ZM117.196 28.14L119.076 28.12L121.176 26.02V25.16H117.196L116.316 26.04V27.24L117.196 28.14ZM129.167 30L124.687 19.54H127.347L130.367 27.62H130.847L133.867 19.54H136.527L132.027 30H129.167ZM139.746 30L137.526 27.78V21.78L139.746 19.54H144.546L146.766 21.78V25.66H139.946V27.14L140.826 28.02H146.586V30H139.746ZM139.946 23.8H144.346V22.3L143.466 21.42H140.826L139.946 22.3V23.8Z" fill="white"/>
</svg>
