<svg width="93" height="38" viewBox="0 0 93 38" fill="none" xmlns="http://www.w3.org/2000/svg">
<path d="M0.951172 23.6263V0.882812H14.4814V23.6152H0.951172V23.6263ZM12.8421 18.3351L13.1901 15.8228L11.9325 15.7006L11.5508 17.6348C10.7648 18.0238 9.79914 18.2128 8.64262 18.2128C7.07064 18.2128 5.82429 17.7237 4.91479 16.7344C3.99406 15.745 3.54492 14.4444 3.54492 12.8215C3.54492 11.243 3.99406 9.94243 4.8811 8.91975C5.76814 7.89707 6.93592 7.38573 8.38438 7.38573C9.12546 7.38573 9.75423 7.47465 10.2595 7.6414C10.7648 7.80814 11.2251 8.03046 11.6631 8.31948L12.0336 10.2314L13.3136 10.1092L12.9431 7.59693C12.4041 7.14117 11.7641 6.77434 11.023 6.48532C10.282 6.20742 9.36125 6.06291 8.27209 6.06291C6.98083 6.06291 5.86922 6.37416 4.93727 7.00778C4.00531 7.6414 3.27546 8.4751 2.75896 9.5089C2.24245 10.5538 1.9842 11.6765 1.9842 12.8771C1.9842 14.7779 2.5793 16.3675 3.7695 17.6348C4.95971 18.902 6.50922 19.5356 8.42927 19.5356C10.3156 19.5356 11.7866 19.1354 12.8421 18.3351Z" fill="white"/>
<path d="M19.0742 23.6263V0.882812H24.8905V23.6152H19.0742V23.6263ZM19.6918 19.3355H24.2842V18.1906H22.701V5.49599H19.6693V6.64095H21.275V18.1906H19.6918V19.3355Z" fill="white"/>
<path d="M29.4824 23.6263V0.882812H39.7002V23.6152H29.4824V23.6263ZM31.3351 11.0652L31.0095 13.1327L32.1885 13.2773L32.5365 11.7321C33.0418 11.4876 33.6145 11.3653 34.2882 11.3653C35.0966 11.3653 35.6468 11.5654 35.9275 11.9656C36.2082 12.3657 36.343 12.8882 36.343 13.5329V14.3333C36.096 14.311 35.8377 14.2888 35.557 14.2777C35.2763 14.2666 35.0068 14.2555 34.7373 14.2555C33.7268 14.2555 32.7611 14.4333 31.8628 14.789C30.9646 15.1448 30.5154 15.8895 30.5154 17.0123C30.5154 17.9682 30.8186 18.6241 31.4362 18.9798C32.0537 19.3466 32.6601 19.5245 33.2552 19.5245C33.985 19.5245 34.6138 19.3355 35.1303 18.9576C35.6468 18.5796 36.051 18.1572 36.343 17.6681V17.7126C36.3654 18.9242 36.9156 19.5245 37.9935 19.5245C38.409 19.5245 38.802 19.4245 39.1725 19.2244L39.1501 18.3017C38.9704 18.3795 38.7683 18.424 38.5437 18.424C38.0272 18.424 37.769 18.1016 37.769 17.4569V13.1994C37.769 11.1985 36.691 10.1981 34.5352 10.1981C33.9401 10.1981 33.3787 10.2648 32.8509 10.3982C32.312 10.5427 31.8067 10.765 31.3351 11.0652ZM36.3317 15.9785C36.2756 16.7121 35.9724 17.3013 35.4222 17.7237C34.8721 18.1572 34.2882 18.3684 33.6594 18.3684C33.2664 18.3684 32.8846 18.2573 32.5253 18.0461C32.1548 17.8349 31.9751 17.4347 31.9751 16.8566C31.9751 16.1563 32.2558 15.7117 32.7948 15.5005C33.345 15.2893 33.9513 15.1892 34.6362 15.1892C34.9394 15.1892 35.2313 15.2003 35.5121 15.2337C35.7928 15.2559 36.0735 15.2781 36.3205 15.2893V15.9785H36.3317Z" fill="white"/>
<path d="M44.3037 23.6263V0.882812H53.5896V23.6152H44.3037V23.6263ZM52.6127 16.7455C52.6127 16.034 52.4218 15.5116 52.04 15.167C51.6583 14.8224 51.1979 14.589 50.6365 14.4556C50.0751 14.3222 49.5249 14.211 48.9747 14.1221C48.4245 14.0331 47.9529 13.8886 47.5712 13.6997C47.1894 13.5107 46.9985 13.1772 46.9985 12.6992C46.9985 12.2435 47.1782 11.91 47.5487 11.6877C47.9192 11.4653 48.3796 11.3653 48.9522 11.3653C49.6147 11.3653 50.2323 11.5098 50.8049 11.8099L51.0295 13.255L52.2085 13.1105L51.9839 11.0207C51.6021 10.7872 51.1418 10.5983 50.5916 10.4426C50.0414 10.287 49.4575 10.1981 48.8287 10.1981C47.9978 10.1981 47.2343 10.3982 46.5269 10.7872C45.8196 11.1763 45.4715 11.8433 45.4715 12.7993C45.4715 13.4996 45.6623 14.0109 46.0441 14.3333C46.4259 14.6668 46.8975 14.8891 47.4701 15.0225C48.0428 15.1559 48.6042 15.267 49.1656 15.3671C49.727 15.456 50.1986 15.6116 50.5804 15.8117C50.9621 16.0118 51.153 16.3564 51.153 16.8566C51.153 17.368 50.906 17.7459 50.4119 17.9905C49.9179 18.235 49.3565 18.3573 48.7165 18.3573C47.9978 18.3573 47.3241 18.2128 46.7066 17.9127L46.7627 16.7232L45.6287 16.601L45.3479 18.6352C45.7409 18.8909 46.2574 19.1021 46.8862 19.2688C47.515 19.4356 48.1438 19.5245 48.7838 19.5245C49.873 19.5245 50.7825 19.2799 51.5123 18.7797C52.2422 18.3017 52.6127 17.6125 52.6127 16.7455Z" fill="white"/>
<path d="M58.1826 23.6263V0.882812H67.4684V23.6152H58.1826V23.6263ZM66.4916 16.7455C66.4916 16.034 66.3007 15.5116 65.9189 15.167C65.5371 14.8224 65.0768 14.589 64.5154 14.4556C63.9539 14.3222 63.4038 14.211 62.8536 14.1221C62.3034 14.0331 61.8318 13.8886 61.45 13.6997C61.0683 13.5107 60.8774 13.1772 60.8774 12.6992C60.8774 12.2435 61.057 11.91 61.4276 11.6877C61.7981 11.4653 62.2585 11.3653 62.8311 11.3653C63.4936 11.3653 64.1112 11.5098 64.6838 11.8099L64.9084 13.255L66.0874 13.1105L65.8628 11.0207C65.481 10.7872 65.0207 10.5983 64.4705 10.4426C63.9203 10.287 63.3364 10.1981 62.7076 10.1981C61.8767 10.1981 61.1132 10.3982 60.4058 10.7872C59.6984 11.1763 59.3503 11.8433 59.3503 12.7993C59.3503 13.4996 59.5412 14.0109 59.923 14.3333C60.3048 14.6668 60.7764 14.8891 61.349 15.0225C61.9217 15.1559 62.483 15.267 63.0445 15.3671C63.6059 15.456 64.0775 15.6116 64.4592 15.8117C64.841 16.0118 65.0319 16.3564 65.0319 16.8566C65.0319 17.368 64.7849 17.7459 64.2909 17.9905C63.7968 18.235 63.2354 18.3573 62.5954 18.3573C61.8767 18.3573 61.203 18.2128 60.5854 17.9127L60.6416 16.7232L59.5076 16.601L59.2268 18.6352C59.6198 18.8909 60.1363 19.1021 60.7651 19.2688C61.3939 19.4356 62.0227 19.5245 62.6627 19.5245C63.7519 19.5245 64.6614 19.2799 65.3912 18.7797C66.1211 18.3017 66.4916 17.6125 66.4916 16.7455Z" fill="white"/>
<path d="M72.0605 23.6263V0.882812H78.18V23.6152H72.0605V23.6263ZM72.9588 19.3355H77.5512V18.1906H75.968V10.3871H72.9252V11.532H74.5532V18.1906H72.97V19.3355H72.9588ZM74.3961 6.24077V8.07492H75.9456V6.24077H74.3961Z" fill="white"/>
<path d="M82.7725 23.6263V0.882812H92.5524V23.6152H82.7725V23.6263ZM91.6766 16.3231L90.4527 16.0563C90.1832 17.5681 89.3636 18.324 88.0162 18.324C87.1179 18.324 86.4329 18.0238 85.9613 17.4236C85.4898 16.8233 85.254 15.9785 85.254 14.9113C85.254 13.9442 85.4673 13.1216 85.8827 12.4324C86.2982 11.7432 86.9943 11.4098 87.96 11.4098C88.701 11.4098 89.3523 11.5765 89.8913 11.91L90.2394 13.4218L91.4183 13.2773L91.0702 11.1207C90.6099 10.7761 90.1271 10.5316 89.6218 10.3982C89.1165 10.2648 88.5663 10.1981 87.9712 10.1981C86.5677 10.1981 85.501 10.6872 84.8048 11.6654C84.0974 12.6436 83.7493 13.7552 83.7493 14.9891C83.7493 16.4231 84.1199 17.5458 84.8722 18.3351C85.6132 19.1354 86.6126 19.5356 87.8589 19.5356C89.1053 19.5356 90.026 19.191 90.6099 18.5129C91.1938 17.8237 91.553 17.1012 91.6766 16.3231Z" fill="white"/>
<path d="M6.80086 36.041C6.54261 36.5079 6.16083 36.8747 5.66679 37.1304C5.16151 37.3861 4.5664 37.5195 3.87024 37.5195H1.86035V31.25H3.87024C4.5664 31.25 5.17274 31.3723 5.66679 31.6279C6.16083 31.8836 6.54261 32.2393 6.80086 32.7173C7.05912 33.1953 7.18262 33.74 7.18262 34.3847C7.18262 35.0184 7.05912 35.5742 6.80086 36.041ZM5.68923 36.1633C6.12714 35.7409 6.3405 35.1517 6.3405 34.3847C6.3405 33.6177 6.12714 33.0286 5.68923 32.6062C5.25132 32.1837 4.62253 31.9725 3.79163 31.9725H2.65759V36.7969H3.79163C4.62253 36.7969 5.25132 36.5857 5.68923 36.1633Z" fill="#FF5196"/>
<path d="M11.348 31.9058V34.0513H13.7509V34.6738H11.348V36.8636H14.0204V37.5195H10.5283V31.25H14.0204V31.9058H11.348Z" fill="#FF5196"/>
<path d="M21.1174 36.7155C20.9714 36.9712 20.7581 37.1824 20.4662 37.338C20.1742 37.4936 19.8149 37.5826 19.377 37.5826C18.9615 37.5826 18.5798 37.5047 18.2542 37.3602C17.9285 37.2046 17.6703 37.0045 17.4682 36.7377C17.2773 36.4709 17.165 36.1708 17.1313 35.8373H18.0071C18.0296 36.0152 18.0857 36.193 18.1868 36.3598C18.2878 36.5265 18.445 36.671 18.6359 36.7822C18.8268 36.8934 19.0626 36.9489 19.3433 36.9489C19.7026 36.9489 19.9834 36.86 20.1742 36.6599C20.3651 36.4598 20.4662 36.2264 20.4662 35.9263C20.4662 35.6706 20.3988 35.4594 20.264 35.3038C20.1293 35.1481 19.9609 35.0147 19.77 34.9258C19.5791 34.8369 19.2984 34.7368 18.9616 34.6257C18.5573 34.4923 18.243 34.37 17.9959 34.2588C17.7489 34.1477 17.5468 33.9698 17.3783 33.7364C17.2099 33.5029 17.1201 33.2028 17.1201 32.8249C17.1201 32.5025 17.1987 32.2135 17.3559 31.9578C17.5131 31.7133 17.7377 31.5132 18.0408 31.3798C18.3328 31.2464 18.6921 31.1797 19.0851 31.1797C19.7026 31.1797 20.2079 31.3242 20.5672 31.6243C20.9377 31.9245 21.1399 32.3024 21.2072 32.7693H20.3314C20.2865 32.5247 20.1518 32.3024 19.9497 32.1134C19.7363 31.9245 19.4556 31.8244 19.0963 31.8244C18.7707 31.8244 18.5012 31.9134 18.3103 32.0801C18.1082 32.2468 18.0184 32.4914 18.0184 32.7915C18.0184 33.0361 18.0858 33.2362 18.2093 33.3807C18.344 33.5363 18.5012 33.6475 18.6921 33.7364C18.883 33.8253 19.1524 33.9142 19.478 34.0254C19.8823 34.1588 20.2079 34.2811 20.4662 34.4034C20.7132 34.5256 20.9265 34.7035 21.0949 34.9369C21.2634 35.1704 21.3532 35.4927 21.3532 35.8929C21.3307 36.1819 21.2634 36.4598 21.1174 36.7155Z" fill="#FF5196"/>
<path d="M25.4964 31.25V37.5195H24.6768V31.25H25.4964Z" fill="#FF5196"/>
<path d="M33.7828 31.7241C34.2881 32.091 34.6249 32.5801 34.7933 33.2026H33.9288C33.7828 32.8246 33.5245 32.5134 33.1764 32.2911C32.8284 32.0576 32.4129 31.9465 31.9301 31.9465C31.5034 31.9465 31.1104 32.0465 30.7736 32.2466C30.4367 32.4467 30.1673 32.7246 29.9651 33.0914C29.7743 33.4582 29.6732 33.8918 29.6732 34.392C29.6732 34.9033 29.7743 35.348 29.9651 35.7148C30.156 36.0816 30.4367 36.3707 30.7848 36.5708C31.1329 36.7708 31.5371 36.8709 31.9975 36.8709C32.3905 36.8709 32.7385 36.782 33.0642 36.6263C33.3898 36.4596 33.648 36.215 33.8614 35.9038C34.0747 35.5925 34.187 35.2146 34.2319 34.7922H31.7392V34.1919H34.9168V34.9367C34.8607 35.4369 34.7035 35.8816 34.4453 36.2929C34.187 36.7041 33.8389 37.0154 33.401 37.2488C32.9631 37.4823 32.4691 37.6045 31.9076 37.6045C31.3013 37.6045 30.7623 37.4712 30.2907 37.2044C29.8192 36.9376 29.4598 36.5596 29.2016 36.0705C28.9433 35.5925 28.8086 35.0367 28.8086 34.4142C28.8086 33.7917 28.9433 33.2359 29.2016 32.7579C29.4598 32.2799 29.8304 31.8909 30.2907 31.6241C30.7511 31.3573 31.2901 31.2128 31.8964 31.2128C32.6599 31.1906 33.2775 31.3684 33.7828 31.7241Z" fill="#FF5196"/>
<path d="M43.2027 37.5195H42.383L39.0931 32.5617V37.5195H38.2734V31.25H39.0931L42.383 36.2078V31.25H43.2027V37.5195Z" fill="#FF5196"/>
<path d="M55.0149 36.7155C54.8689 36.9712 54.6555 37.1824 54.3636 37.338C54.0717 37.4936 53.7124 37.5826 53.2745 37.5826C52.859 37.5826 52.4773 37.5047 52.1517 37.3602C51.826 37.2046 51.5678 37.0045 51.3657 36.7377C51.1748 36.4709 51.0625 36.1708 51.0288 35.8373H51.9046C51.9271 36.0152 51.9832 36.193 52.0843 36.3598C52.1853 36.5265 52.3425 36.671 52.5334 36.7822C52.7243 36.8934 52.9601 36.9489 53.2408 36.9489C53.6001 36.9489 53.8808 36.86 54.0717 36.6599C54.2625 36.4598 54.3636 36.2264 54.3636 35.9263C54.3636 35.6706 54.2962 35.4594 54.1615 35.3038C54.0268 35.1481 53.8583 35.0147 53.6675 34.9258C53.4766 34.8369 53.1959 34.7368 52.859 34.6257C52.4548 34.4923 52.1404 34.37 51.8934 34.2588C51.6463 34.1477 51.4442 33.9698 51.2758 33.7364C51.1074 33.5029 51.0176 33.2028 51.0176 32.8249C51.0176 32.5025 51.0961 32.2135 51.2533 31.9578C51.4105 31.7133 51.6351 31.5132 51.9383 31.3798C52.2303 31.2464 52.5896 31.1797 52.9825 31.1797C53.6001 31.1797 54.1054 31.3242 54.4647 31.6243C54.8352 31.9245 55.0374 32.3024 55.1047 32.7693H54.2289C54.184 32.5247 54.0492 32.3024 53.8471 32.1134C53.6337 31.9245 53.3531 31.8244 52.9938 31.8244C52.6682 31.8244 52.3987 31.9134 52.2078 32.0801C52.0057 32.2468 51.9158 32.4914 51.9158 32.7915C51.9158 33.0361 51.9832 33.2362 52.1067 33.3807C52.2414 33.5363 52.3986 33.6475 52.5895 33.7364C52.7804 33.8253 53.0499 33.9142 53.3755 34.0254C53.7797 34.1588 54.1054 34.2811 54.3636 34.4034C54.6106 34.5256 54.824 34.7035 54.9924 34.9369C55.1608 35.1704 55.2506 35.4927 55.2506 35.8929C55.2282 36.1819 55.1608 36.4598 55.0149 36.7155Z" fill="#FF5196"/>
<path d="M62.4602 31.25V31.9058H60.6748V37.5195H59.8439V31.9058H58.0586V31.25H62.4602Z" fill="#FF5196"/>
<path d="M66.2776 31.25V35.0072C66.2776 35.6186 66.4124 36.0744 66.6931 36.3745C66.9738 36.6635 67.3444 36.8192 67.8384 36.8192C68.3212 36.8192 68.6918 36.6747 68.9612 36.3745C69.2307 36.0744 69.3654 35.6297 69.3654 35.0184V31.2611H70.1852V35.0184C70.1852 35.8743 69.9718 36.519 69.5451 36.9414C69.1185 37.375 68.5458 37.5862 67.8272 37.5862C67.1198 37.5862 66.5472 37.375 66.1205 36.9414C65.6938 36.5079 65.4805 35.8743 65.4805 35.0184V31.2611H66.2776V31.25Z" fill="#FF5196"/>
<path d="M78.6397 36.041C78.3814 36.5079 77.9996 36.8747 77.5056 37.1304C77.0003 37.3861 76.4052 37.5195 75.7091 37.5195H73.6992V31.25H75.7091C76.4052 31.25 77.0115 31.3723 77.5056 31.6279C77.9996 31.8836 78.3814 32.2393 78.6397 32.7173C78.8979 33.1953 79.0215 33.74 79.0215 34.3847C79.0215 35.0184 78.8979 35.5742 78.6397 36.041ZM77.5393 36.1633C77.9772 35.7409 78.1906 35.1517 78.1906 34.3847C78.1906 33.6177 77.9772 33.0286 77.5393 32.6062C77.1014 32.1837 76.4726 31.9725 75.6417 31.9725H74.5076V36.7969H75.6417C76.4614 36.7969 77.1014 36.5857 77.5393 36.1633Z" fill="#FF5196"/>
<path d="M83.1986 31.25V37.5195H82.3789V31.25H83.1986Z" fill="#FF5196"/>
<path d="M91.2379 31.5832C91.7095 31.8611 92.08 32.239 92.3495 32.7281C92.619 33.2172 92.7537 33.773 92.7537 34.3844C92.7537 34.9958 92.619 35.5516 92.3495 36.0407C92.08 36.5298 91.7095 36.9078 91.2379 37.1857C90.7663 37.4636 90.2385 37.597 89.6547 37.597C89.0708 37.597 88.5318 37.4636 88.0602 37.1857C87.5887 36.9078 87.2069 36.5298 86.9374 36.0407C86.6679 35.5516 86.5332 34.9958 86.5332 34.3844C86.5332 33.773 86.6679 33.2172 86.9374 32.7281C87.2069 32.239 87.5774 31.8611 88.0602 31.5832C88.5431 31.3053 89.0708 31.1719 89.6547 31.1719C90.2385 31.1719 90.7663 31.3053 91.2379 31.5832ZM88.4757 32.2279C88.1276 32.428 87.8582 32.7059 87.6673 33.0838C87.4764 33.4507 87.3753 33.8842 87.3753 34.3844C87.3753 34.8735 87.4764 35.3071 87.6673 35.685C87.8582 36.063 88.1276 36.3409 88.4757 36.5409C88.8238 36.741 89.2055 36.8411 89.6434 36.8411C90.0701 36.8411 90.4631 36.741 90.8112 36.5409C91.1593 36.3409 91.4287 36.0518 91.6196 35.685C91.8105 35.3182 91.9116 34.8846 91.9116 34.3955C91.9116 33.8953 91.8105 33.4618 91.6196 33.095C91.4287 32.7281 91.1593 32.4391 90.8112 32.239C90.4631 32.0389 90.0813 31.9389 89.6434 31.9389C89.2167 31.9278 88.8238 32.0278 88.4757 32.2279Z" fill="#FF5196"/>
</svg>
