<svg width="113" height="36" viewBox="0 0 113 36" fill="none" xmlns="http://www.w3.org/2000/svg">
<path d="M31.7646 17.2783C31.8262 16.6807 31.8569 15.9951 31.8569 15.2217C31.8569 13.9912 31.791 12.4619 31.6592 10.6338C33.3027 10.6865 36.0845 10.7129 40.0044 10.7129C43.9243 10.7129 46.6973 10.6865 48.3232 10.6338C48.1914 12.4619 48.1255 13.9912 48.1255 15.2217C48.1255 15.9951 48.1562 16.6807 48.2178 17.2783H47.5981C47.2993 15.7754 46.9346 14.5889 46.5039 13.7188C46.0732 12.8398 45.5547 12.2114 44.9482 11.8335C44.3506 11.4468 43.6211 11.2534 42.7598 11.2534H42.1401V26.6782C42.1401 27.4253 42.2148 27.9702 42.3643 28.313C42.5225 28.6558 42.7949 28.8887 43.1816 29.0117C43.5771 29.1348 44.1924 29.2007 45.0273 29.2095V29.75C42.7598 29.6973 41.0503 29.6709 39.8989 29.6709C38.7651 29.6709 37.1172 29.6973 34.9551 29.75V29.2095C35.7988 29.2007 36.4141 29.1348 36.8008 29.0117C37.1963 28.8887 37.4688 28.6558 37.6182 28.313C37.7676 27.9702 37.8423 27.4253 37.8423 26.6782V11.2534H37.249C36.3789 11.2534 35.6406 11.4424 35.0342 11.8203C34.4365 12.1982 33.9224 12.8267 33.4917 13.7056C33.061 14.5757 32.6919 15.7666 32.3843 17.2783H31.7646ZM56.4312 18.3594C56.4312 17.6123 56.251 17.0234 55.8906 16.5928C55.5391 16.1621 54.9854 15.9468 54.2295 15.9468C53.8779 15.9468 53.5264 16.0039 53.1748 16.1182C52.8232 16.2236 52.5332 16.3862 52.3047 16.606C52.8057 16.7729 53.1968 17.0366 53.478 17.397C53.7593 17.7485 53.8999 18.1924 53.8999 18.7285C53.8999 19.0977 53.8076 19.4316 53.623 19.7305C53.4473 20.0205 53.1924 20.2534 52.8584 20.4292C52.5244 20.5962 52.1421 20.6797 51.7114 20.6797C51.1313 20.6797 50.6655 20.4819 50.314 20.0864C49.9712 19.6909 49.7998 19.1943 49.7998 18.5967C49.7998 17.665 50.3008 16.9092 51.3027 16.3291C52.4014 15.7227 53.7725 15.4194 55.416 15.4194C57.2617 15.4194 58.5757 15.8237 59.3579 16.6323C59.7358 17.0103 59.9907 17.4805 60.1226 18.043C60.2544 18.6055 60.3203 19.3921 60.3203 20.4028V27.7461C60.3203 28.1855 60.3599 28.4976 60.439 28.6821C60.5269 28.8579 60.6763 28.9458 60.8872 28.9458C61.1772 28.9458 61.5112 28.792 61.8892 28.4844L62.166 28.9458C61.7529 29.2886 61.3047 29.5391 60.8213 29.6973C60.3379 29.8555 59.7578 29.9346 59.0811 29.9346C58.167 29.9346 57.5078 29.7324 57.1035 29.3281C56.6992 28.9238 56.4971 28.3965 56.4971 27.7461C56.0576 28.4756 55.4819 29.0249 54.77 29.394C54.0581 29.7544 53.2979 29.9346 52.4893 29.9346C51.4609 29.9346 50.6348 29.6665 50.0107 29.1304C49.3955 28.5854 49.0879 27.8296 49.0879 26.8628C49.0879 25.9224 49.3955 25.1445 50.0107 24.5293C50.626 23.9141 51.5796 23.3691 52.8716 22.8945C53.0122 22.8418 53.4692 22.6704 54.2427 22.3804C55.0161 22.0815 55.5742 21.7783 55.917 21.4707C56.2598 21.1631 56.4312 20.8247 56.4312 20.4556V18.3594ZM56.4312 21.563C56.3169 21.7563 56.1279 21.9585 55.8643 22.1694C55.6094 22.3716 55.2402 22.6221 54.7568 22.9209C54.1855 23.3164 53.7373 23.7646 53.4121 24.2656C53.0869 24.7578 52.9243 25.373 52.9243 26.1113C52.9243 26.8145 53.0781 27.3418 53.3857 27.6934C53.6934 28.0361 54.0977 28.2075 54.5986 28.2075C55.3105 28.2075 55.9214 27.8384 56.4312 27.1001V21.563ZM68.5732 18.0034C68.916 17.2388 69.4082 16.6191 70.0498 16.1445C70.7002 15.6611 71.4341 15.4194 72.2515 15.4194C72.7964 15.4194 73.2534 15.5381 73.6226 15.7754C73.9917 16.0127 74.2642 16.3203 74.4399 16.6982C74.6157 17.0674 74.7036 17.4673 74.7036 17.8979C74.7036 18.5659 74.5103 19.1108 74.1235 19.5327C73.7368 19.9546 73.2271 20.1655 72.5942 20.1655C71.979 20.1655 71.4912 20.0117 71.1309 19.7041C70.7793 19.3877 70.6035 18.9658 70.6035 18.4385C70.6035 17.5771 70.999 16.874 71.79 16.3291C71.6758 16.3027 71.5659 16.2896 71.4604 16.2896C71.3374 16.2896 71.1968 16.3115 71.0386 16.3555C70.5815 16.4258 70.1641 16.6455 69.7861 17.0146C69.4082 17.375 69.1094 17.8101 68.8896 18.3198C68.6787 18.8296 68.5732 19.3262 68.5732 19.8096V26.9683C68.5732 27.8032 68.7754 28.3833 69.1797 28.7085C69.584 29.0249 70.23 29.1831 71.1177 29.1831V29.75C68.8677 29.6797 67.4351 29.6445 66.8198 29.6445C66.2485 29.6445 64.9609 29.6797 62.957 29.75V29.1831C63.3877 29.1831 63.7261 29.126 63.9722 29.0117C64.2271 28.8975 64.4072 28.6997 64.5127 28.4185C64.627 28.1372 64.6841 27.7461 64.6841 27.2451V18.7285C64.6841 17.8936 64.5566 17.2915 64.3018 16.9224C64.0469 16.5444 63.5986 16.3555 62.957 16.3555V15.7886C63.5283 15.8413 64.0864 15.8677 64.6313 15.8677C66.2222 15.8677 67.5361 15.7446 68.5732 15.4985V18.0034ZM85.6064 26.2959C86.6875 26.2959 87.562 26.5244 88.23 26.9814C88.9067 27.4297 89.2451 28.1636 89.2451 29.1831C89.2451 30.106 88.9551 30.998 88.375 31.8594C87.7949 32.7295 86.916 33.4414 85.7383 33.9951C84.5605 34.5488 83.1235 34.8257 81.4272 34.8257C80.1089 34.8257 79.0015 34.7202 78.105 34.5093C77.2173 34.3071 76.5537 34.0303 76.1143 33.6787C75.6748 33.3271 75.4551 32.9272 75.4551 32.479C75.4551 31.9956 75.6353 31.6353 75.9956 31.3979C76.3647 31.1606 76.9624 30.9102 77.7886 30.6465C78.6147 30.3828 79.1992 30.1279 79.542 29.8818H78.9092C78.1621 29.8818 77.4722 29.7017 76.8394 29.3413C76.2065 28.981 75.8901 28.3262 75.8901 27.377C75.8901 26.8584 75.9956 26.3926 76.2065 25.9795C76.4263 25.5576 76.7822 25.1577 77.2744 24.7798C77.7754 24.3931 78.4478 23.9976 79.2915 23.5933C78.3687 23.2769 77.6479 22.7979 77.1294 22.1562C76.6108 21.5059 76.3516 20.6885 76.3516 19.7041C76.3516 18.2803 76.8789 17.2124 77.9336 16.5005C78.9971 15.7798 80.4033 15.4194 82.1523 15.4194C82.873 15.4194 83.541 15.481 84.1562 15.604C84.1299 15.147 84.165 14.6943 84.2617 14.2461C84.3496 13.499 84.6045 12.9014 85.0264 12.4531C85.4482 11.9961 86.0459 11.7676 86.8193 11.7676C87.3906 11.7676 87.8608 11.9214 88.23 12.229C88.6079 12.5278 88.7969 12.9233 88.7969 13.4155C88.7969 13.8726 88.6167 14.2505 88.2563 14.5493C87.9048 14.8394 87.4609 14.9844 86.9248 14.9844C86.3799 14.9844 85.9536 14.8569 85.646 14.6021C85.3384 14.3472 85.1011 13.9692 84.9341 13.4683C84.7407 13.7935 84.6045 14.2549 84.5254 14.8525C84.5166 14.9404 84.5122 15.0723 84.5122 15.248C84.5122 15.4414 84.5166 15.5864 84.5254 15.6831C85.5977 15.9556 86.437 16.4302 87.0435 17.1069C87.6499 17.7749 87.9531 18.6406 87.9531 19.7041C87.9531 20.6621 87.7026 21.4619 87.2017 22.1035C86.7095 22.7451 86.0283 23.2241 85.1582 23.5405C84.2881 23.8481 83.2861 24.002 82.1523 24.002C81.2998 24.002 80.522 23.9141 79.8188 23.7383C79.3003 24.0371 78.9136 24.3096 78.6587 24.5557C78.4126 24.8018 78.2896 25.083 78.2896 25.3994C78.2896 25.9971 78.6499 26.2959 79.3706 26.2959H85.6064ZM82.1523 15.894C81.5635 15.894 81.1152 16.1841 80.8076 16.7642C80.5 17.3442 80.3462 18.3242 80.3462 19.7041C80.3462 21.084 80.5 22.064 80.8076 22.644C81.1152 23.2241 81.5635 23.5142 82.1523 23.5142C82.75 23.5142 83.1982 23.2241 83.4971 22.644C83.8047 22.064 83.9585 21.084 83.9585 19.7041C83.9585 18.3242 83.8047 17.3442 83.4971 16.7642C83.1982 16.1841 82.75 15.894 82.1523 15.894ZM80.0562 29.8818C79.7573 30.1631 79.5244 30.5103 79.3574 30.9233C79.1992 31.3364 79.1201 31.71 79.1201 32.0439C79.1201 32.791 79.4014 33.3623 79.9639 33.7578C80.5352 34.1621 81.2646 34.3643 82.1523 34.3643C82.8818 34.3643 83.5586 34.228 84.1826 33.9556C84.8154 33.6919 85.3164 33.3052 85.6855 32.7954C86.0635 32.2856 86.2524 31.6924 86.2524 31.0156C86.2524 30.6289 86.1382 30.3433 85.9097 30.1587C85.6812 29.9741 85.2725 29.8818 84.6836 29.8818H80.0562ZM94.6899 21.4048C94.6636 21.6685 94.6504 22.0903 94.6504 22.6704C94.6504 23.8657 94.8174 24.8589 95.1514 25.6499C95.4854 26.4321 95.916 27.0078 96.4434 27.377C96.9795 27.7373 97.5508 27.9175 98.1572 27.9175C99.6426 27.9175 100.833 27.1968 101.73 25.7554L102.205 25.9136C101.976 26.6519 101.62 27.3418 101.137 27.9834C100.662 28.6162 100.056 29.1348 99.3174 29.5391C98.5879 29.9346 97.7529 30.1323 96.8125 30.1323C95.5732 30.1323 94.4834 29.8687 93.543 29.3413C92.6113 28.814 91.8818 28.0142 91.3545 26.9419C90.8359 25.8608 90.5767 24.5205 90.5767 22.9209C90.5767 21.2861 90.8579 19.9106 91.4204 18.7944C91.9829 17.6694 92.7607 16.8257 93.7539 16.2632C94.7471 15.7007 95.894 15.4194 97.1948 15.4194C100.579 15.4194 102.271 17.4146 102.271 21.4048H94.6899ZM98.8691 20.8906C98.8955 19.4844 98.7505 18.3154 98.4341 17.3838C98.1265 16.4521 97.6562 15.9863 97.0234 15.9863C96.3818 15.9863 95.8457 16.3862 95.415 17.186C94.9932 17.9771 94.7339 19.2119 94.6372 20.8906H98.8691ZM112.514 15.8149V16.3555H109.324V27.2451C109.324 27.7812 109.42 28.1636 109.614 28.3921C109.807 28.6118 110.106 28.7217 110.51 28.7217C111.275 28.7217 111.886 28.1812 112.343 27.1001L112.804 27.3506C112.127 29.2051 110.897 30.1323 109.113 30.1323C107.926 30.1323 107.025 29.8247 106.41 29.2095C106.032 28.8403 105.773 28.3745 105.632 27.812C105.5 27.2407 105.435 26.4541 105.435 25.4521V16.3555H103.167V15.8149H105.435V12.229C106.92 12.229 108.216 11.939 109.324 11.3589V15.8149H112.514Z" fill="white"/>
<rect y="5.75" width="26" height="26" rx="5" fill="#FFB6D3"/>
<circle cx="13" cy="18.75" r="5" fill="#FF5196"/>
<path d="M13 13.15V11.75M13 25.75V24.35M18.6 18.75H20M6 18.75H7.4M13 13.71C12.0032 13.71 11.0287 14.0056 10.1999 14.5594C9.3711 15.1132 8.72511 15.9003 8.34365 16.8213C7.96218 17.7422 7.86237 18.7556 8.05684 19.7333C8.25131 20.7109 8.73132 21.609 9.43618 22.3138C10.141 23.0187 11.0391 23.4987 12.0167 23.6932C12.9944 23.8876 14.0078 23.7878 14.9287 23.4064C15.8497 23.0249 16.6368 22.3789 17.1906 21.5501C17.7444 20.7212 18.04 19.7468 18.04 18.75C18.04 17.4133 17.509 16.1314 16.5638 15.1862C15.6186 14.241 14.3367 13.71 13 13.71Z" stroke="white" stroke-width="2" stroke-linecap="square" stroke-linejoin="round"/>
</svg>
