<svg width="116" height="64" viewBox="0 0 116 64" fill="none" xmlns="http://www.w3.org/2000/svg">
<path d="M30.682 15L1.75488 29V36H113.755V1L65.543 23L30.682 15Z" fill="url(#paint0_linear_11266_42356)"/>
<path d="M0.754883 29L30.1986 14.7544L65.682 22.614L114.755 1" stroke="#4C56CC" stroke-linecap="round"/>
<path d="M21.1494 52.2295C21.1494 54.1299 21.6826 55.5312 22.749 56.4336C23.8223 57.3359 25.1621 57.7871 26.7686 57.7871C28.3682 57.7871 29.7012 57.3359 30.7676 56.4336C31.834 55.5312 32.3672 54.1299 32.3672 52.2295V42.5703H29.6499V52.3833C29.6499 53.5522 29.3867 54.3896 28.8604 54.8955C28.334 55.3945 27.6401 55.644 26.7788 55.644C25.9106 55.644 25.2134 55.3945 24.687 54.8955C24.1675 54.3896 23.9077 53.5522 23.9077 52.3833V42.5703H21.1494V52.2295ZM35.0845 61.7964H37.7607V56.3721C38.0479 56.7822 38.4546 57.1069 38.981 57.3462C39.5142 57.5854 40.1294 57.7051 40.8267 57.7051C42.1597 57.7051 43.2329 57.2163 44.0464 56.2388C44.8599 55.2544 45.2666 53.9624 45.2666 52.3628V52.0347C45.2666 50.4282 44.8564 49.1396 44.0361 48.1689C43.2158 47.1914 42.1289 46.7026 40.7754 46.7026C40.0781 46.7026 39.4526 46.8462 38.8989 47.1333C38.3452 47.4136 37.9453 47.7656 37.6992 48.1895H37.6479L37.5864 46.918H35.0845V61.7964ZM37.7607 54.0957V50.2915C37.9385 49.8813 38.2256 49.5225 38.6221 49.2148C39.0254 48.9004 39.5176 48.7432 40.0986 48.7432C40.9326 48.7432 41.5479 49.0337 41.9443 49.6147C42.3408 50.189 42.5391 50.9614 42.5391 51.9321V52.4653C42.5391 53.436 42.3408 54.2153 41.9443 54.8032C41.5479 55.3843 40.936 55.6748 40.1089 55.6748C39.5415 55.6748 39.0493 55.5176 38.6323 55.2031C38.2222 54.8818 37.9316 54.5127 37.7607 54.0957ZM51.8086 53.3472C51.8086 54.7759 52.3281 55.873 53.3672 56.6387C54.4131 57.4043 55.7734 57.7871 57.4482 57.7871C59.1299 57.7871 60.4731 57.3975 61.478 56.6182C62.4897 55.832 62.9956 54.7622 62.9956 53.4087C62.9956 52.1167 62.6025 51.1187 61.8164 50.4146C61.0303 49.7036 59.8682 49.1294 58.3301 48.6919C56.8809 48.2886 55.9341 47.9331 55.4897 47.6255C55.0454 47.3179 54.8232 46.8838 54.8232 46.3232C54.8232 45.7354 55.0283 45.2705 55.4385 44.9287C55.8486 44.5869 56.4878 44.416 57.356 44.416C58.2241 44.416 58.877 44.6245 59.3145 45.0415C59.7588 45.4517 59.981 46.002 59.981 46.6924V46.918H62.6982V46.6411C62.6982 45.3286 62.2095 44.2759 61.2319 43.4829C60.2612 42.6831 58.9658 42.2832 57.3457 42.2832C55.7188 42.2832 54.4302 42.6729 53.48 43.4521C52.5298 44.2246 52.0547 45.2432 52.0547 46.5078C52.0615 47.7109 52.4409 48.6509 53.1929 49.3276C53.9517 50.0044 55.1138 50.5649 56.6792 51.0093C58.1216 51.4126 59.0752 51.7886 59.54 52.1372C60.0049 52.4858 60.2373 52.9678 60.2373 53.583C60.2373 54.2119 59.9946 54.7178 59.5093 55.1006C59.0308 55.4834 58.3403 55.6748 57.438 55.6748C56.5356 55.6748 55.8315 55.4766 55.3257 55.0801C54.8198 54.6836 54.5669 54.0889 54.5669 53.2959V53.0396H51.8086V53.3472ZM65.0054 57.5H67.6816V50.353C67.8799 49.8745 68.1636 49.4951 68.5327 49.2148C68.9019 48.9346 69.3394 48.7944 69.8452 48.7944C70.4263 48.7944 70.8809 48.9517 71.209 49.2661C71.5371 49.5806 71.7012 50.1069 71.7012 50.8452V57.5H74.3672V50.6812C74.3672 49.2661 74.0459 48.251 73.4033 47.6357C72.7676 47.0137 71.9473 46.7026 70.9424 46.7026C70.1904 46.7026 69.541 46.8496 68.9941 47.1436C68.4473 47.4375 68.0098 47.8203 67.6816 48.292V41.9038H65.0054V57.5ZM76.377 52.3628C76.377 54.0034 76.8657 55.3193 77.8433 56.3105C78.8276 57.3018 80.1196 57.7974 81.7192 57.7974C83.3188 57.7974 84.6074 57.3018 85.585 56.3105C86.5625 55.3193 87.0513 54.0034 87.0513 52.3628V52.0347C87.0513 50.4009 86.5625 49.0884 85.585 48.0972C84.6074 47.106 83.3188 46.6104 81.7192 46.6104C80.1196 46.6104 78.8276 47.106 77.8433 48.0972C76.8657 49.0884 76.377 50.4009 76.377 52.0347V52.3628ZM79.1045 51.9321C79.1045 50.9272 79.3301 50.1309 79.7812 49.543C80.2324 48.9551 80.8784 48.6611 81.7192 48.6611C82.5532 48.6611 83.1958 48.9551 83.647 49.543C84.0981 50.1309 84.3237 50.9272 84.3237 51.9321V52.4756C84.3237 53.4805 84.1016 54.2769 83.6572 54.8647C83.2129 55.4526 82.5669 55.7466 81.7192 55.7466C80.8716 55.7466 80.2222 55.4526 79.771 54.8647C79.3267 54.2769 79.1045 53.4805 79.1045 52.4756V51.9321ZM87.8101 48.8867H94.2803V46.918H87.8101V48.8867ZM89.502 54.4956C89.502 55.6372 89.7788 56.4712 90.3325 56.9976C90.8862 57.5239 91.6313 57.7871 92.5679 57.7871C92.9302 57.7871 93.2583 57.7563 93.5522 57.6948C93.853 57.6333 94.0854 57.5649 94.2495 57.4897V55.521C94.0923 55.5825 93.9282 55.6338 93.7573 55.6748C93.5933 55.709 93.4292 55.7261 93.2651 55.7261C92.9028 55.7261 92.626 55.6304 92.4346 55.439C92.25 55.2476 92.1577 54.8887 92.1577 54.3623V44.2109H89.5225V47.605L89.502 47.8818V54.4956Z" fill="white"/>
<defs>
<linearGradient id="paint0_linear_11266_42356" x1="57.7549" y1="1" x2="57.5864" y2="35.501" gradientUnits="userSpaceOnUse">
<stop stop-color="#7782FF"/>
<stop offset="1" stop-color="#7782FF" stop-opacity="0"/>
</linearGradient>
</defs>
</svg>
