<svg width="68" height="68" viewBox="0 0 68 68" fill="none" xmlns="http://www.w3.org/2000/svg">
<rect width="68" height="68" rx="20" fill="#0C513F"/>
<g clip-path="url(#clip0_11266_42267)">
<path d="M28.6985 15.9924C28.8851 15.9378 29.0789 15.9087 29.2799 15.9087C29.5563 15.9087 29.8183 15.9633 30.0624 16.0616C30.3137 16.1636 30.5398 16.313 30.73 16.4951C30.9203 16.6809 31.0746 16.8995 31.1787 17.1472C31.2792 17.384 31.3366 17.6462 31.3366 17.9158V18.852H35.1019C36.0136 17.5151 37.4673 15.9779 38.4651 14.9251C38.7846 14.5863 39.061 14.2949 39.2476 14.0873V14.0836C39.2512 14.0764 39.2584 14.0691 39.2656 14.0654C39.6389 13.5919 40.0409 13.2822 40.4357 13.1074C40.8916 12.9034 41.3438 12.8779 41.7387 12.9835C41.8966 13.0273 42.0473 13.0892 42.1837 13.173C42.3237 13.2567 42.4529 13.3587 42.5678 13.4789C42.6827 13.5955 42.7832 13.7303 42.8693 13.8797C42.9519 14.0254 43.0201 14.1856 43.0667 14.3532C43.178 14.7503 43.1852 15.1983 43.0524 15.6646C42.9375 16.0726 42.715 16.4915 42.3596 16.8922L42.3489 16.9031C42.2986 16.9614 42.2053 17.0634 42.0832 17.2091L41.9109 17.4095H41.9863C42.0617 17.4095 42.1371 17.4131 42.2125 17.4204C42.2807 17.4277 42.3524 17.435 42.4206 17.4459H50.2957C50.547 17.4459 50.7911 17.5042 51.0136 17.6062C51.2397 17.7118 51.4479 17.8684 51.6166 18.0652C51.7853 18.2582 51.9253 18.4877 52.0186 18.7427C52.1084 18.9868 52.1586 19.2563 52.1586 19.5332C52.1586 19.7408 52.1299 19.9448 52.0761 20.1415C52.0509 20.2362 52.0186 20.3273 51.9827 20.4147H52.0545C52.3094 20.4147 52.5499 20.473 52.7724 20.575C52.9985 20.6806 53.2067 20.8409 53.3754 21.034C53.5441 21.227 53.6805 21.4565 53.7738 21.7115C53.8636 21.9556 53.9138 22.2252 53.9138 22.502C53.9138 22.7788 53.8636 23.0484 53.7738 23.2925C53.6805 23.5475 53.5441 23.777 53.3754 23.97C53.2031 24.1631 52.9985 24.3197 52.7724 24.429C52.5499 24.5346 52.3094 24.5893 52.0545 24.5893H51.9899C52.0294 24.6804 52.0617 24.7751 52.0904 24.8698C52.1478 25.0701 52.1766 25.2778 52.1766 25.489V25.4927C52.1766 25.7695 52.1263 26.0391 52.0366 26.2832C51.9433 26.5381 51.8069 26.7676 51.6382 26.9607C51.4659 27.1538 51.2613 27.3141 51.0351 27.4197C50.8126 27.5253 50.5721 27.58 50.3173 27.58H50.1557C50.1916 27.6638 50.2204 27.7548 50.2419 27.8422C50.2921 28.028 50.3173 28.2284 50.3173 28.4287V28.436C50.3173 28.7129 50.267 28.9751 50.1773 29.2192C50.084 29.4742 49.9476 29.7037 49.7789 29.8967C49.6066 30.0898 49.402 30.2465 49.1758 30.3557C48.9533 30.4614 48.7128 30.516 48.458 30.516H48.1636V36.603C49.4809 37.5938 50.9957 39.1748 52.0366 40.2603C52.3668 40.6064 52.6504 40.9014 52.8621 41.1091L52.8693 41.1127C52.8765 41.12 52.8801 41.1237 52.8873 41.1309C53.3503 41.5353 53.6518 41.9688 53.8241 42.395C54.0215 42.8867 54.0466 43.3712 53.9425 43.7974C53.8995 43.965 53.8384 44.1289 53.7595 44.2783C53.6769 44.4313 53.5764 44.5697 53.4616 44.6935C53.3431 44.821 53.2103 44.9303 53.0667 45.0177C52.9231 45.1052 52.7652 45.178 52.5965 45.2327C52.2053 45.3529 51.7566 45.3601 51.2972 45.2181C50.8916 45.0906 50.4752 44.8465 50.0768 44.4568C50.0193 44.4021 49.9117 44.2965 49.7753 44.1653L49.5814 43.9796V44.0706C49.5814 44.1508 49.5779 44.2309 49.5707 44.3147C49.5635 44.3875 49.5563 44.4604 49.5455 44.5405V52.835C49.5455 53.1046 49.4881 53.3669 49.3876 53.6037C49.2835 53.8514 49.1292 54.0699 48.9389 54.2557C48.7487 54.4415 48.5226 54.5908 48.2713 54.6892C48.0272 54.7875 47.7652 54.8422 47.4888 54.8422C47.2807 54.8422 47.0796 54.8094 46.8894 54.7548C46.7961 54.7256 46.7064 54.6928 46.6202 54.6528V54.7438C46.6202 55.0134 46.5628 55.2757 46.4623 55.5124C46.3582 55.7602 46.2038 55.9787 46.0136 56.1645C45.8234 56.3503 45.5972 56.4996 45.346 56.598C45.1019 56.6963 44.8399 56.751 44.5635 56.751C44.2871 56.751 44.0251 56.6963 43.781 56.598C43.5298 56.496 43.3036 56.3466 43.1134 56.1645C42.9232 55.9787 42.7688 55.7602 42.6647 55.5124C42.5642 55.2757 42.5068 55.0134 42.5068 54.7438V54.6637C42.4242 54.7038 42.3345 54.7365 42.2483 54.7657L42.234 54.773C42.0366 54.8349 41.8284 54.864 41.6202 54.864H41.6166C41.3402 54.864 41.0782 54.8094 40.8341 54.711C40.5829 54.6091 40.3567 54.4597 40.1665 54.2776C39.9763 54.0918 39.8219 53.8732 39.7178 53.6255C39.6173 53.3887 39.5599 53.1265 39.5599 52.8569V52.6711C39.4774 52.7075 39.3912 52.7403 39.3015 52.7658C39.1148 52.8205 38.921 52.8496 38.72 52.8496C38.4436 52.8496 38.1816 52.795 37.9375 52.6966C37.6863 52.5946 37.4601 52.4453 37.2699 52.2631C37.0796 52.0774 36.9253 51.8588 36.8212 51.6111C36.7207 51.3743 36.6633 51.112 36.6633 50.8425V49.9063H32.9016C31.9899 51.2432 30.5362 52.7804 29.5384 53.8331C29.2153 54.1719 28.9425 54.4633 28.7559 54.671L28.7344 54.6965C28.3611 55.1664 27.9626 55.4724 27.5678 55.6509C27.112 55.8549 26.6597 55.8804 26.2649 55.7747C26.1069 55.731 25.9562 55.6691 25.8198 55.5853C25.6798 55.5015 25.5506 55.3995 25.4357 55.2793C25.3244 55.1664 25.2275 55.0352 25.145 54.8895L25.1378 54.875C25.0552 54.7293 24.9906 54.569 24.9404 54.4014C24.8291 54.0044 24.8219 53.5563 24.9547 53.09C25.0696 52.682 25.2921 52.2631 25.6475 51.8624L25.6583 51.8515C25.7085 51.7932 25.8018 51.6912 25.9239 51.5455L26.0962 51.3452H26.0208C25.9454 51.3452 25.87 51.3415 25.7947 51.3342C25.7265 51.3269 25.6547 51.3197 25.5865 51.3087H17.6181C17.3668 51.3087 17.1227 51.2505 16.9002 51.1485C16.674 51.0428 16.4659 50.8825 16.2972 50.6895C16.1285 50.4964 15.9885 50.2669 15.8987 50.0119C15.809 49.7679 15.7588 49.4983 15.7588 49.2214C15.7588 49.0138 15.7875 48.8098 15.8413 48.6131C15.8664 48.5184 15.8987 48.4273 15.9346 48.3399H15.8629C15.608 48.3399 15.3675 48.2816 15.145 48.1796C14.9188 48.074 14.7107 47.9137 14.542 47.7206C14.3733 47.5276 14.2369 47.2981 14.1435 47.0431C14.0502 46.8027 14 46.5331 14 46.2563C14 45.9794 14.0502 45.7099 14.14 45.4658C14.2333 45.2108 14.3697 44.9813 14.5384 44.7882C14.7107 44.5952 14.9153 44.4385 15.1414 44.3293C15.3639 44.2236 15.6044 44.169 15.8593 44.169H15.9239C15.8844 44.0779 15.8521 43.9832 15.8234 43.8885C15.7659 43.6881 15.7372 43.4805 15.7372 43.2692V43.2656C15.7372 42.9887 15.7875 42.7192 15.8772 42.4751C15.9705 42.2201 16.1069 41.9906 16.2756 41.7976C16.4479 41.6045 16.6525 41.4442 16.8786 41.3386C17.1012 41.2329 17.3417 41.1783 17.5965 41.1783H17.758C17.7257 41.0945 17.697 41.0107 17.6719 40.9233L17.6683 40.916C17.6181 40.7302 17.5929 40.5299 17.5929 40.3295V40.3223C17.5929 40.0454 17.6432 39.7831 17.7329 39.5391C17.8262 39.2841 17.9626 39.0546 18.1313 38.8615C18.3036 38.6684 18.5082 38.5082 18.7344 38.4025C18.9569 38.2969 19.1974 38.2423 19.4522 38.2423H19.8363V32.1552C18.519 31.1644 17.0043 29.5835 15.9634 28.4979C15.6295 28.1482 15.346 27.8532 15.1342 27.6455L15.1163 27.6273C14.6532 27.223 14.3481 26.7895 14.1758 26.3633C13.9784 25.8715 13.9533 25.387 14.0574 24.9608C14.1005 24.7933 14.1615 24.6294 14.2405 24.48C14.323 24.327 14.4235 24.1886 14.5384 24.0647C14.6568 23.9372 14.7896 23.828 14.9332 23.7405C15.0768 23.6531 15.2347 23.5802 15.4034 23.5256C15.7947 23.4054 16.2433 23.3981 16.7028 23.5402C17.1084 23.6677 17.5247 23.9117 17.9232 24.3015C17.9806 24.3562 18.0883 24.4618 18.2247 24.5929L18.4185 24.7787V24.6876C18.4185 24.6075 18.4221 24.5274 18.4293 24.4436C18.4364 24.3707 18.4436 24.2979 18.4544 24.2177V15.9196C18.4544 15.65 18.5118 15.3877 18.6123 15.151C18.7164 14.9033 18.8707 14.6847 19.061 14.4989C19.2512 14.3131 19.4774 14.1638 19.7286 14.0654C19.9727 13.9671 20.2347 13.9124 20.5111 13.9124C20.7193 13.9124 20.9203 13.9452 21.1105 13.9999C21.2038 14.029 21.2936 14.0618 21.3797 14.1019V14.0071C21.3797 13.7376 21.4372 13.4753 21.5377 13.2385C21.6417 12.9908 21.7961 12.7723 21.9863 12.5865C22.1766 12.4007 22.4027 12.2513 22.6539 12.153C22.898 12.0546 23.1636 12 23.44 12C23.7164 12 23.9784 12.0546 24.2225 12.153C24.4738 12.255 24.6999 12.4043 24.8901 12.5865C25.0804 12.7723 25.2347 12.9908 25.3388 13.2385C25.4393 13.4753 25.4967 13.7376 25.4967 14.0071V14.0873C25.5865 14.0472 25.6762 14.0108 25.7695 13.9816C25.9669 13.9197 26.1751 13.8869 26.3833 13.8869H26.3869C26.6633 13.8869 26.9253 13.9416 27.1694 14.0399C27.4206 14.1419 27.6468 14.2913 27.837 14.4734C28.0272 14.6592 28.1816 14.8778 28.2857 15.1255C28.3862 15.3622 28.4436 15.6245 28.4436 15.8941V16.0799C28.5226 16.0507 28.6087 16.0179 28.6985 15.9924ZM21.229 32.6762V38.2423H25.5757H25.5793C25.608 38.2423 25.6367 38.2459 25.6654 38.2495C25.6798 38.2532 25.6941 38.2532 25.7049 38.2568C25.748 38.2532 25.7947 38.2495 25.8413 38.2459C25.9023 38.2423 25.9634 38.2386 26.0172 38.2386H28.4257V32.2208C28.4257 31.281 28.4544 31.2628 28.7308 31.0843C28.8456 31.0114 29.0251 30.8949 29.3051 30.5233C29.5671 30.1809 29.7717 29.7948 29.9153 29.3795C30.0517 28.9788 30.1234 28.5489 30.1234 28.1045V24.684C30.1234 24.6549 30.1234 24.6294 30.1199 24.6002V17.9194C30.1199 17.8138 30.0983 17.7118 30.0624 17.6207L30.0588 17.6135C30.0158 17.5151 29.9547 17.424 29.8758 17.3475C29.8004 17.2747 29.7107 17.2128 29.6102 17.1727L29.603 17.169C29.5061 17.129 29.3948 17.1071 29.2799 17.1071C29.1651 17.1071 29.0574 17.129 28.9569 17.169C28.8528 17.2091 28.7595 17.271 28.6841 17.3475C28.6051 17.424 28.5441 17.5115 28.501 17.6098C28.4616 17.7045 28.44 17.8065 28.44 17.9158V21.4857V21.5039C28.44 21.6059 28.3575 21.6897 28.257 21.6897H27.4063C27.3058 21.6897 27.2232 21.6059 27.2232 21.5039V15.9014C27.2232 15.7921 27.2017 15.6901 27.1622 15.5954C27.1191 15.497 27.0581 15.406 26.9791 15.3331C26.9002 15.2566 26.8104 15.1947 26.7064 15.1546C26.6094 15.1145 26.4982 15.0927 26.3833 15.0927C26.2684 15.0927 26.1608 15.1145 26.0603 15.1546C25.9562 15.1947 25.8629 15.2566 25.7875 15.3331C25.7085 15.4096 25.6475 15.497 25.6044 15.5954C25.5649 15.6901 25.5434 15.7921 25.5434 15.9014V21.5039C25.5434 21.6059 25.4608 21.6897 25.3603 21.6897H24.4594C24.3589 21.6897 24.2763 21.6059 24.2763 21.5039V14.0108C24.2763 13.9051 24.2548 13.8032 24.2189 13.7121L24.2153 13.7048C24.1723 13.6064 24.1112 13.5154 24.0323 13.4425C23.9533 13.366 23.86 13.3041 23.7595 13.264C23.6626 13.224 23.5513 13.2021 23.4364 13.2021C23.3252 13.2021 23.2175 13.224 23.1242 13.2604H23.117C23.0129 13.3005 22.9196 13.3624 22.8442 13.4389C22.7652 13.5154 22.7042 13.6028 22.6611 13.7012C22.6216 13.7959 22.6001 13.8979 22.6001 14.0071V21.5039C22.6001 21.6059 22.5176 21.6897 22.4171 21.6897H21.5377C21.4372 21.6897 21.3546 21.6059 21.3546 21.5039V15.9196C21.3546 15.8103 21.3331 15.7083 21.2936 15.6136C21.2505 15.5152 21.1859 15.4242 21.1105 15.3513C21.0316 15.2748 20.9418 15.2129 20.8377 15.1728C20.7408 15.1328 20.6295 15.1109 20.5147 15.1109C20.3998 15.1109 20.2921 15.1328 20.1916 15.1728C20.0911 15.2129 20.0014 15.2712 19.926 15.344L19.9188 15.3513C19.8399 15.4278 19.7789 15.5152 19.7358 15.6172C19.6963 15.7119 19.6748 15.8139 19.6748 15.9232C19.6748 17.2783 19.6676 18.7973 19.664 20.3127C19.6568 21.6496 19.6532 22.9828 19.6532 24.6876L19.5527 26.3342C19.5491 26.3997 19.5097 26.4616 19.4486 26.4908L19.1256 26.6438C19.0969 26.6584 19.0682 26.6693 19.0323 26.6693C18.9748 26.6693 18.9174 26.662 18.86 26.6438C18.8025 26.6256 18.7487 26.6037 18.702 26.5709C18.5944 26.509 18.458 26.4107 18.3144 26.2941C18.1636 26.1702 18.0093 26.0355 17.8585 25.9007C17.5391 25.6093 17.2053 25.285 17.0796 25.1612C16.8428 24.9317 16.6094 24.786 16.3941 24.7059C16.1644 24.6257 15.9526 24.6184 15.7767 24.6731C15.7157 24.6913 15.6547 24.7204 15.5972 24.7569C15.5398 24.7933 15.4896 24.8333 15.4429 24.8843C15.3962 24.9317 15.3567 24.99 15.3244 25.0483C15.2921 25.1102 15.267 25.1758 15.2491 25.245C15.1952 25.4599 15.2168 25.7112 15.3388 25.9808C15.4501 26.2285 15.6403 26.4835 15.931 26.7385L15.9454 26.7494L15.9777 26.7786L15.9992 26.8004C16.1177 26.917 16.2828 27.0846 16.491 27.2958C17.4529 28.2721 19.2548 30.0971 20.6403 31.1243C20.6547 31.1353 20.669 31.1462 20.6834 31.1608C20.7803 31.2737 20.8629 31.3939 20.9382 31.5214C21.0136 31.6489 21.0746 31.7837 21.1249 31.9221C21.1644 32.0423 21.1967 32.1625 21.2146 32.29C21.2326 32.4102 21.2397 32.5377 21.2361 32.6725L21.229 32.6762ZM29.8112 31.7728V38.286C30.3137 38.3625 30.7911 38.5227 31.2326 38.7559C31.7207 39.0145 32.1658 39.3679 32.5499 39.7868H36.7351C36.8212 39.2914 36.9756 38.8142 37.1945 38.3734C37.4494 37.8561 37.7868 37.3898 38.1924 36.9855V30.4759C37.6898 30.3994 37.2125 30.2392 36.771 30.006C36.2792 29.7474 35.8377 29.3941 35.4537 28.9751H31.2649C31.1787 29.4705 31.0244 29.9477 30.8054 30.3885C30.5542 30.8985 30.2132 31.3684 29.8112 31.7728ZM36.6633 44.0779V41.1965H32.9519C32.0761 41.1965 32.0617 41.1674 31.893 40.8832C31.8248 40.7667 31.7207 40.5882 31.3797 40.3004C31.0639 40.0345 30.7121 39.8268 30.3316 39.6848C29.9655 39.5463 29.5707 39.4735 29.1651 39.4735H26.0172C25.9921 39.4735 25.9669 39.4735 25.9382 39.4771H19.4594C19.3625 39.4771 19.2728 39.499 19.1866 39.5391C19.0969 39.5828 19.0179 39.6447 18.9497 39.7212C18.8815 39.8013 18.8241 39.896 18.7846 39.998C18.7487 40.1 18.7272 40.2093 18.7272 40.3295C18.7272 40.4461 18.7487 40.559 18.7846 40.661C18.8241 40.7667 18.8815 40.8614 18.9497 40.9415C19.0179 41.018 19.0969 41.0799 19.1866 41.1236C19.2692 41.1637 19.3625 41.1856 19.4594 41.1856H23.0739H23.0919C23.1924 41.1856 23.2749 41.2694 23.2749 41.3714V42.2347C23.2749 42.3367 23.1924 42.4205 23.0919 42.4205H17.6001C17.5032 42.4205 17.4135 42.4423 17.3273 42.4824C17.2376 42.5261 17.155 42.588 17.0868 42.6645C17.0186 42.7447 16.9612 42.8394 16.9217 42.9414C16.8858 43.0434 16.8643 43.1527 16.8643 43.2729C16.8643 43.3894 16.8858 43.5024 16.9217 43.6044C16.9612 43.71 17.0186 43.8047 17.0868 43.8848C17.155 43.9613 17.234 44.0233 17.3273 44.067C17.4099 44.107 17.5032 44.1289 17.6001 44.1289H23.0883C23.1888 44.1289 23.2713 44.2127 23.2713 44.3147V45.229C23.2713 45.331 23.1888 45.4148 23.0883 45.4148H15.8593C15.7623 45.4148 15.6726 45.4366 15.5865 45.4767C15.4967 45.5204 15.4142 45.5824 15.3496 45.6589C15.2814 45.739 15.2239 45.8337 15.1845 45.9393C15.1486 46.0413 15.127 46.1506 15.127 46.2708C15.127 46.391 15.1486 46.5003 15.1845 46.6023C15.2204 46.7043 15.2742 46.7954 15.3424 46.8719L15.3496 46.8792C15.4178 46.9557 15.5003 47.0176 15.5901 47.0613C15.6726 47.1014 15.7659 47.1232 15.8629 47.1232H23.0919C23.1924 47.1232 23.2749 47.207 23.2749 47.309V48.2015C23.2749 48.3035 23.1924 48.3873 23.0919 48.3873H17.6181C17.5211 48.3873 17.4314 48.4091 17.3453 48.4492C17.2591 48.4893 17.1802 48.5475 17.1155 48.6204L17.1084 48.6313C17.0402 48.7115 16.9827 48.8062 16.9433 48.9082C16.9074 49.0102 16.8858 49.1194 16.8858 49.2397C16.8858 49.3562 16.9074 49.4692 16.9433 49.5711C16.9827 49.6768 17.0366 49.7715 17.1084 49.8516C17.173 49.9281 17.2519 49.9864 17.3381 50.0301L17.3453 50.0338C17.4278 50.0738 17.5211 50.0957 17.6181 50.0957C18.86 50.0957 20.3424 50.103 21.8248 50.1066C23.1313 50.1139 24.4379 50.1176 26.0172 50.1176L27.5319 50.2196C27.5965 50.2232 27.6575 50.2633 27.6863 50.3288L27.8298 50.6567C27.8442 50.6822 27.8514 50.7113 27.8514 50.7441C27.8514 50.8024 27.8442 50.8607 27.8298 50.9153C27.8155 50.9663 27.7939 51.0173 27.7652 51.0683C27.7078 51.1812 27.6145 51.3197 27.5068 51.469C27.4027 51.6074 27.2771 51.7677 27.1407 51.9316C26.8751 52.2522 26.5915 52.5764 26.473 52.7112L26.4623 52.7258C26.2505 52.9662 26.1141 53.203 26.0459 53.4215C25.9705 53.6583 25.9669 53.8732 26.0172 54.0554C26.0351 54.1209 26.0603 54.1828 26.0926 54.2375C26.1249 54.2958 26.1644 54.3468 26.211 54.3941C26.2541 54.4415 26.3043 54.4779 26.3618 54.5107C26.4156 54.5435 26.4766 54.569 26.5377 54.5835C26.7279 54.6345 26.9576 54.6127 27.1981 54.4961C27.4206 54.3868 27.6575 54.1938 27.8873 53.9024L27.898 53.8841L27.9267 53.8514L27.9519 53.8222C28.0739 53.6874 28.2211 53.5272 28.4005 53.3304C29.2979 52.3542 30.9777 50.5255 31.9253 49.1194C31.9361 49.1049 31.9468 49.0903 31.9612 49.0757C32.0653 48.981 32.1766 48.89 32.295 48.8135C32.4135 48.737 32.5355 48.6714 32.6683 48.624C32.7796 48.584 32.8908 48.5512 33.0129 48.533C33.1277 48.5148 33.2462 48.5075 33.3682 48.5111H36.6705V44.5697V44.566C36.6705 44.5369 36.674 44.5078 36.6776 44.4786C36.6812 44.464 36.6848 44.4458 36.6848 44.4313C36.6812 44.3839 36.674 44.3329 36.674 44.2783C36.6633 44.1981 36.6633 44.1362 36.6633 44.0779ZM31.3402 24.684V27.5654H35.0517C35.9275 27.5654 35.9418 27.5945 36.1105 27.8787C36.1787 27.9952 36.2828 28.1737 36.6238 28.4615C36.9397 28.7274 37.2914 28.9351 37.6719 29.0771C38.038 29.2156 38.4328 29.2884 38.8384 29.2884H41.9863C42.0114 29.2884 42.0366 29.2884 42.0653 29.2848H48.4544C48.5513 29.2848 48.641 29.2629 48.7272 29.2228C48.8169 29.1791 48.8959 29.1172 48.9677 29.0407C49.0359 28.9606 49.0933 28.8659 49.1328 28.7639C49.1687 28.6619 49.1902 28.5526 49.1902 28.4324C49.1902 28.3158 49.1687 28.2029 49.1328 28.1009C49.0933 27.9952 49.0359 27.9005 48.9677 27.8204C48.8995 27.7439 48.8205 27.682 48.7308 27.6383C48.6482 27.5982 48.5549 27.5763 48.458 27.5763H44.9332H44.9153C44.8148 27.5763 44.7322 27.4925 44.7322 27.3905V26.5272C44.7322 26.4252 44.8148 26.3414 44.9153 26.3414H50.3173C50.4142 26.3414 50.5039 26.3196 50.5901 26.2795C50.6762 26.2394 50.7552 26.1812 50.8198 26.1083L50.827 26.0974C50.8952 26.0172 50.9526 25.9225 50.9921 25.8205C51.028 25.7185 51.0495 25.6093 51.0495 25.489C51.0495 25.3725 51.028 25.2595 50.9921 25.1576C50.9526 25.0519 50.8952 24.9572 50.827 24.8771C50.7588 24.8006 50.6798 24.7386 50.5865 24.6949C50.5039 24.6549 50.4106 24.633 50.3137 24.633H44.9117C44.8112 24.633 44.7286 24.5492 44.7286 24.4472V23.5329C44.7286 23.4309 44.8112 23.3471 44.9117 23.3471H52.0545C52.1514 23.3471 52.2412 23.3253 52.3273 23.2852C52.417 23.2415 52.4996 23.1795 52.5678 23.1031C52.636 23.0229 52.6934 22.9282 52.7329 22.8262C52.7688 22.7242 52.7903 22.6149 52.7903 22.4947C52.7903 22.3781 52.7688 22.2652 52.7329 22.1632C52.697 22.0612 52.6432 21.9702 52.575 21.8937L52.5678 21.8864C52.4996 21.8099 52.417 21.748 52.3309 21.7042C52.2483 21.6642 52.155 21.6423 52.0581 21.6423H44.9153C44.8148 21.6423 44.7322 21.5585 44.7322 21.4565V20.5641C44.7322 20.4621 44.8148 20.3783 44.9153 20.3783H50.2993C50.3962 20.3783 50.486 20.3564 50.5721 20.3164C50.6618 20.2726 50.7444 20.2107 50.8126 20.1342C50.8808 20.0541 50.9382 19.9594 50.9777 19.8574C51.0136 19.7554 51.0351 19.6461 51.0351 19.5259C51.0351 19.4093 51.0136 19.2964 50.9777 19.1944C50.9382 19.0888 50.8844 18.994 50.8126 18.9139C50.7444 18.8374 50.6618 18.7755 50.5721 18.7318C50.4896 18.6917 50.3962 18.6698 50.2993 18.6698C49.0574 18.6698 47.5965 18.6626 46.1392 18.6589C44.8542 18.6553 43.5692 18.648 41.9935 18.648L40.4716 18.5569C40.407 18.5533 40.346 18.5132 40.3173 18.4476L40.1737 18.1198C40.1593 18.0943 40.1522 18.0652 40.1522 18.0324C40.1522 17.9741 40.1593 17.9158 40.1737 17.8612C40.188 17.8102 40.2096 17.7592 40.2383 17.7082C40.2957 17.5952 40.3891 17.4568 40.4967 17.3075C40.6008 17.169 40.7265 17.0088 40.8628 16.8448C41.1249 16.5279 41.4084 16.2074 41.5305 16.0689L41.5448 16.0507C41.7566 15.8103 41.893 15.5735 41.9612 15.355C42.0366 15.1182 42.0402 14.9033 41.9899 14.7211C41.972 14.6556 41.9468 14.5936 41.9145 14.539C41.8822 14.4807 41.8428 14.4297 41.7961 14.3823C41.753 14.335 41.7028 14.2986 41.6453 14.2658C41.5915 14.2294 41.5305 14.2039 41.4695 14.1856C41.2792 14.1346 41.0495 14.1565 40.809 14.2731C40.5865 14.3823 40.3496 14.5754 40.1198 14.8668L40.1091 14.885L40.0804 14.9178L40.0481 14.9506C39.926 15.0854 39.7789 15.2457 39.5994 15.4424C38.702 16.4186 37.0222 18.2473 36.0746 19.6534C36.0639 19.668 36.0531 19.6825 36.0387 19.6971C35.9346 19.7918 35.8234 19.8792 35.7049 19.9594C35.5865 20.0359 35.4644 20.1014 35.3316 20.1488C35.2204 20.1889 35.1091 20.2216 34.987 20.2399C34.8722 20.2581 34.7537 20.2654 34.6317 20.2617H31.3295V24.2032V24.2068C31.3295 24.2359 31.3259 24.2651 31.3223 24.2942C31.3187 24.3088 31.3151 24.327 31.3151 24.3416C31.3187 24.3889 31.3259 24.4399 31.3259 24.4946C31.3366 24.5638 31.3402 24.6257 31.3402 24.684ZM41.9827 30.5233H39.5743V36.5447C39.5743 37.4846 39.5455 37.5028 39.2692 37.6813C39.1543 37.7541 38.9748 37.8707 38.6949 38.2423C38.4328 38.5847 38.2282 38.9708 38.0847 39.3861C37.9483 39.7868 37.8765 40.2166 37.8765 40.661V44.0816C37.8765 44.1107 37.8765 44.1362 37.8801 44.1653V50.8461C37.8801 50.9517 37.9016 51.0501 37.9375 51.1412L37.9411 51.1485C37.9842 51.2468 38.0452 51.3379 38.1242 51.4144C38.2031 51.4909 38.2964 51.5528 38.3969 51.5929C38.4939 51.6329 38.6051 51.6548 38.72 51.6548C38.8349 51.6548 38.9425 51.6329 39.043 51.5929C39.1471 51.5528 39.2405 51.4909 39.3158 51.4144C39.3948 51.3379 39.4558 51.2505 39.4989 51.1521C39.5384 51.0574 39.5599 50.9554 39.5599 50.8461V47.2762V47.258C39.5599 47.156 39.6425 47.0722 39.743 47.0722H40.5936C40.6941 47.0722 40.7767 47.156 40.7767 47.258V52.8605C40.7767 52.9698 40.7982 53.0718 40.8377 53.1665C40.8772 53.2612 40.9382 53.3487 41.01 53.4215L41.0208 53.4288C41.0962 53.5017 41.1859 53.5636 41.2864 53.6037L41.2936 53.6073C41.3905 53.6474 41.5018 53.6692 41.6166 53.6692C41.7315 53.6692 41.8392 53.6474 41.9397 53.6073C42.0438 53.5672 42.1335 53.5053 42.2125 53.4288C42.2914 53.3523 42.3524 53.2649 42.3955 53.1665C42.435 53.0718 42.4565 52.9698 42.4565 52.8605V47.258C42.4565 47.156 42.5391 47.0722 42.6396 47.0722H43.5405C43.641 47.0722 43.7236 47.156 43.7236 47.258V54.7548C43.7236 54.864 43.7451 54.966 43.7846 55.0607C43.8277 55.1591 43.8887 55.2502 43.9677 55.323C44.0466 55.3995 44.1399 55.4614 44.2405 55.5015C44.3374 55.5416 44.4486 55.5634 44.5635 55.5634C44.6748 55.5634 44.7824 55.5416 44.8758 55.5052L44.8829 55.5015C44.987 55.4614 45.0804 55.3995 45.1557 55.323C45.2347 55.2465 45.2957 55.1591 45.3388 55.0607C45.3783 54.966 45.3998 54.864 45.3998 54.7548V47.258C45.3998 47.156 45.4824 47.0722 45.5829 47.0722H46.4623C46.5628 47.0722 46.6453 47.156 46.6453 47.258V52.8423C46.6453 52.9516 46.6669 53.0536 46.7064 53.1483C46.7494 53.2467 46.8104 53.3377 46.8894 53.4142C46.9684 53.4907 47.0581 53.5527 47.1622 53.5927C47.2591 53.6328 47.3704 53.6547 47.4852 53.6547C47.6001 53.6547 47.7078 53.6328 47.8083 53.5927C47.9124 53.5527 48.0021 53.4907 48.0811 53.4142C48.16 53.3377 48.2211 53.2503 48.2641 53.1483C48.3036 53.0536 48.3252 52.9516 48.3252 52.8423C48.3252 51.4872 48.3323 49.9682 48.3359 48.4528C48.3431 47.1159 48.3467 45.7827 48.3467 44.0779L48.4472 42.4314C48.4508 42.3658 48.4903 42.3039 48.5513 42.2748L48.8743 42.1218C48.9031 42.1072 48.9318 42.0963 48.9677 42.0963C49.0251 42.0963 49.0825 42.1035 49.1399 42.1218C49.1974 42.14 49.2512 42.1618 49.2979 42.1946C49.4056 42.2565 49.542 42.3549 49.6855 42.4715C49.8363 42.5953 49.9906 42.7301 50.1414 42.8649C50.4608 43.1563 50.7947 43.4805 50.9203 43.6044C51.1572 43.8338 51.3905 43.9796 51.6059 44.0597C51.8356 44.1435 52.0473 44.1471 52.2232 44.0925C52.2842 44.0743 52.3453 44.0451 52.4027 44.0087C52.4601 43.9723 52.5104 43.9286 52.557 43.8812C52.6037 43.8338 52.6432 43.7756 52.6755 43.7173C52.7078 43.6553 52.7329 43.5898 52.7509 43.5206C52.8047 43.3056 52.7832 43.0543 52.6611 42.7847C52.5499 42.537 52.3596 42.282 52.0689 42.027L52.0545 42.0161L52.0222 41.987L52.0007 41.9651C51.8822 41.8486 51.7171 41.681 51.5125 41.4734C50.5506 40.4971 48.7487 38.6721 47.3632 37.6412C47.3489 37.6303 47.3345 37.6193 47.3201 37.6048C47.2268 37.4918 47.1407 37.3716 47.0653 37.2441C46.9899 37.1166 46.9289 36.9819 46.8786 36.8434C46.8392 36.7232 46.8069 36.603 46.7889 36.4755C46.771 36.3553 46.7638 36.2278 46.7674 36.093V30.516H42.4206H42.417C42.3883 30.516 42.3596 30.5124 42.3309 30.5087C42.3165 30.5051 42.3022 30.5051 42.2914 30.5014C42.2483 30.5051 42.2053 30.5087 42.1586 30.5124H42.155C42.0976 30.5197 42.0402 30.5233 41.9827 30.5233Z" fill="#E9FAF6"/>
</g>
<defs>
<clipPath id="clip0_11266_42267">
<rect width="40" height="44.7619" fill="white" transform="translate(14 12)"/>
</clipPath>
</defs>
</svg>
