<svg width="46" height="46" viewBox="0 0 46 46" fill="none" xmlns="http://www.w3.org/2000/svg">
<rect width="46" height="46" rx="13" fill="#FFC501"/>
<g clip-path="url(#clip0_11266_42388)">
<path opacity="0.4" d="M29.8494 7H15.3486C10.0643 7 7.07031 9.99399 7.07031 15.2783V29.7654C7.07031 35.0497 10.0643 38.0437 15.3486 38.0437H29.8494C35.1338 38.0437 38.114 35.0497 38.114 29.7654V15.2783C38.114 9.99399 35.1338 7 29.8494 7Z" fill="white"/>
<path d="M31.9979 21.8984V27.5418H26.3545" stroke="white" stroke-width="2.5" stroke-linecap="round" stroke-linejoin="round"/>
<path d="M31.9978 27.5405L25.3603 20.903C25.2438 20.7865 25.1056 20.694 24.9534 20.6309C24.8012 20.5679 24.638 20.5354 24.4733 20.5354C24.3085 20.5354 24.1454 20.5679 23.9932 20.6309C23.8409 20.694 23.7027 20.7865 23.5862 20.903L20.971 23.5182C20.8545 23.6347 20.7163 23.7272 20.5641 23.7902C20.4119 23.8533 20.2487 23.8858 20.084 23.8858C19.9192 23.8858 19.7561 23.8533 19.6039 23.7902C19.4516 23.7272 19.3134 23.6347 19.1969 23.5182L13.1865 17.5078" stroke="white" stroke-width="2.5" stroke-linecap="round" stroke-linejoin="round"/>
</g>
<defs>
<clipPath id="clip0_11266_42388">
<rect width="32" height="32" fill="white" transform="translate(7 7)"/>
</clipPath>
</defs>
</svg>
