<svg width="46" height="46" viewBox="0 0 46 46" fill="none" xmlns="http://www.w3.org/2000/svg">
<rect width="46" height="46" rx="13" fill="#218068"/>
<g clip-path="url(#clip0_11266_42396)">
<path d="M22.5917 41.1131C32.3073 41.1131 40.1834 33.237 40.1834 23.5214C40.1834 13.8058 32.3073 5.92969 22.5917 5.92969C12.8761 5.92969 5 13.8058 5 23.5214C5 33.237 12.8761 41.1131 22.5917 41.1131Z" fill="white" fill-opacity="0.4"/>
<path d="M26.0349 12.6572C26.0349 12.2118 25.4963 11.9887 25.1814 12.3037L13.7111 23.7739C13.5907 23.8945 13.5087 24.048 13.4755 24.2152C13.4423 24.3823 13.4594 24.5556 13.5246 24.713C13.5898 24.8705 13.7002 25.0051 13.8418 25.0998C13.9835 25.1946 14.15 25.2452 14.3204 25.2454H18.6488C18.9249 25.2454 19.1488 25.4693 19.1488 25.7454V34.3848C19.1488 34.8302 19.6873 35.0533 20.0023 34.7383L31.4726 23.2681C31.593 23.1475 31.675 22.9939 31.7082 22.8268C31.7414 22.6596 31.7243 22.4864 31.6591 22.3289C31.5939 22.1715 31.4835 22.0369 31.3419 21.9421C31.2002 21.8474 31.0337 21.7967 30.8633 21.7966H26.5349C26.2588 21.7966 26.0349 21.5727 26.0349 21.2966V12.6572Z" fill="white"/>
</g>
<defs>
<clipPath id="clip0_11266_42396">
<rect width="36" height="37" fill="white" transform="translate(5 5)"/>
</clipPath>
</defs>
</svg>
