<svg width="50" height="50" viewBox="0 0 50 50" fill="none" xmlns="http://www.w3.org/2000/svg">
<rect x="2" y="26" width="13" height="24" rx="4" fill="#ED5E3B"/>
<rect x="19" y="15" width="14" height="35" rx="4" fill="#FFC501"/>
<rect x="37" y="2" width="13" height="48" rx="4" fill="#218068"/>
<circle cx="9" cy="9" r="8.6" fill="#151515" stroke="#303030" stroke-width="0.8"/>
<path fill-rule="evenodd" clip-rule="evenodd" d="M7.73025 5.27193L12.3014 6.41501C12.5819 6.48516 12.7448 6.76739 12.6653 7.04538L11.3697 11.5756C11.2902 11.8536 10.9983 12.0221 10.7178 11.952C10.4373 11.8818 10.2744 11.5996 10.3539 11.3216L11.302 8.00658L6.10013 11.0099C5.85396 11.152 5.53918 11.0676 5.39705 10.8215C5.25492 10.5753 5.33926 10.2605 5.58544 10.1184L10.7873 7.11511L7.44233 6.27865C7.16183 6.2085 6.99888 5.92628 7.07839 5.64828C7.15789 5.37028 7.44974 5.20178 7.73025 5.27193Z" fill="white"/>
</svg>
