<svg width="68" height="68" viewBox="0 0 68 68" fill="none" xmlns="http://www.w3.org/2000/svg">
<rect width="68" height="68" rx="20" fill="#FFC501"/>
<path d="M18.2198 19.2611L11.0618 31.9811C10.9388 32.2001 11.0048 32.4761 11.2128 32.6161L14.0188 34.4991C14.2508 34.6551 14.5678 34.5801 14.7048 34.3371L21.9488 21.5401C22.0758 21.3161 22.0038 21.0321 21.7848 20.8951L18.8938 19.0891C18.6608 18.9431 18.3538 19.0221 18.2198 19.2611ZM56.7868 32.6161L53.9798 34.5001C53.7488 34.6541 53.4318 34.5791 53.2948 34.3371L52.7728 33.4141L46.9108 23.0621L46.0498 21.5401C45.9248 21.3171 45.9968 21.0331 46.2138 20.8961L49.1048 19.0891C49.3378 18.9451 49.6458 19.0221 49.7778 19.2621L56.9378 31.9821C57.0608 32.2001 56.9938 32.4771 56.7868 32.6161Z" stroke="white" stroke-width="1.5" stroke-miterlimit="10" stroke-linecap="round" stroke-linejoin="round"/>
<path d="M46.911 23.0656C43.474 25.2216 34.287 19.9216 29.334 23.5126L25.169 28.6706C24.96 28.9276 24.861 29.2326 24.861 29.5336C24.861 30.0166 25.113 30.4906 25.575 30.7446C26.089 31.0256 26.724 30.9536 27.159 30.5646C27.159 30.5646 30.005 29.0576 31.07 27.0676L33.353 26.2936C38.905 28.4116 48.342 36.1316 48.342 36.1316C49.594 35.8406 52.418 33.6916 52.774 33.4176M21.373 22.5606C21.373 22.5606 22.622 24.9946 28.137 24.9946" stroke="white" stroke-width="1.5" stroke-miterlimit="10" stroke-linecap="round" stroke-linejoin="round"/>
<path d="M27.7745 43.7608L27.7715 43.7578" stroke="white" stroke-width="1.5" stroke-miterlimit="10" stroke-linecap="round" stroke-linejoin="round"/>
<path d="M15.4746 32.9766L18.0556 36.1276L18.3726 36.3776" stroke="white" stroke-width="1.5" stroke-miterlimit="10" stroke-linecap="round" stroke-linejoin="round"/>
<path d="M21.5052 38.8381L21.4932 38.8281" stroke="white" stroke-width="1.5" stroke-miterlimit="10" stroke-linecap="round" stroke-linejoin="round"/>
<path d="M24.644 41.2973L24.625 41.2812" stroke="white" stroke-width="1.5" stroke-miterlimit="10" stroke-linecap="round" stroke-linejoin="round"/>
<path d="M27.3509 47.6378C26.4719 46.9798 26.2919 45.7328 26.9509 44.8538L28.7219 42.4768C29.3799 41.5978 30.6269 41.4178 31.5059 42.0768C32.3849 42.7348 32.5649 43.9818 31.9059 44.8608L30.1349 47.2378C29.4769 48.1168 28.2299 48.2958 27.3509 47.6378Z" stroke="white" stroke-width="1.5" stroke-miterlimit="10" stroke-linecap="round" stroke-linejoin="round"/>
<path d="M23.801 45.7408C22.922 45.0828 22.742 43.8358 23.401 42.9568L25.942 39.5628C26.6 38.6838 27.847 38.5038 28.726 39.1628C29.605 39.8208 29.785 41.0678 29.126 41.9468L26.585 45.3408C25.927 46.2198 24.68 46.3988 23.801 45.7408Z" stroke="white" stroke-width="1.5" stroke-miterlimit="10" stroke-linecap="round" stroke-linejoin="round"/>
<path d="M20.26 43.8429C19.381 43.1849 19.201 41.9379 19.86 41.0589L23.092 36.6409C23.75 35.7619 24.997 35.5819 25.876 36.2409C26.755 36.8989 26.935 38.1459 26.276 39.0249L23.044 43.4429C22.386 44.3219 21.139 44.5009 20.26 43.8429Z" stroke="white" stroke-width="1.5" stroke-miterlimit="10" stroke-linecap="round" stroke-linejoin="round"/>
<path d="M17.8967 40.3776C17.0177 39.7196 16.8377 38.4726 17.4967 37.5936L18.9317 35.6096C19.5897 34.7306 20.8367 34.5506 21.7157 35.2096C22.5947 35.8676 22.7747 37.1146 22.1157 37.9936L20.6797 39.9776C20.0227 40.8566 18.7757 41.0356 17.8967 40.3776Z" stroke="white" stroke-width="1.5" stroke-miterlimit="10" stroke-linecap="round" stroke-linejoin="round"/>
<path d="M34.7136 42.4247L39.2736 45.4047C40.3336 46.0547 40.5436 47.3047 39.7536 48.1847C39.2836 48.7047 38.5636 48.9847 37.8336 48.9847C37.3336 48.9847 36.8336 48.8547 36.4036 48.5847L31.6436 45.4747M37.8536 39.3047L38.1536 39.5047L43.5436 43.0947C44.6036 43.7547 44.8136 44.9947 44.0236 45.8747C43.5536 46.3947 42.8336 46.6747 42.1036 46.6747C41.6036 46.6747 41.0936 46.5447 40.6636 46.2747L34.7836 42.3547" stroke="white" stroke-width="1.5" stroke-miterlimit="10" stroke-linecap="round" stroke-linejoin="round"/>
<path d="M40.9235 36.2578L41.7835 36.8178L45.9035 39.4878L47.0635 40.2478C48.1235 40.9078 48.3335 42.1478 47.5435 43.0278C47.0735 43.5478 46.3535 43.8278 45.6235 43.8278C45.1235 43.8278 44.6235 43.6978 44.1935 43.4278L38.1535 39.5078L37.8535 39.3078" stroke="white" stroke-width="1.5" stroke-miterlimit="10" stroke-linecap="round" stroke-linejoin="round"/>
<path d="M44.0136 33.1953L48.3136 36.0853C49.3736 36.7453 49.5836 37.9853 48.7936 38.8653C48.3236 39.3853 47.6036 39.6653 46.8736 39.6653C46.5436 39.6653 46.2236 39.6153 45.9136 39.4953C45.9036 39.4953 45.9036 39.4853 45.9036 39.4853C45.7336 39.4353 45.5836 39.3553 45.4336 39.2653L41.8536 36.8653L41.7836 36.8153L40.9336 36.2453" stroke="white" stroke-width="1.5" stroke-miterlimit="10" stroke-linecap="round" stroke-linejoin="round"/>
</svg>
