<svg width="101" height="101" viewBox="0 0 101 101" fill="none" xmlns="http://www.w3.org/2000/svg">
<path fill-rule="evenodd" clip-rule="evenodd" d="M101 50.5C101 78.3904 78.3904 101 50.5 101C22.6096 101 0 78.3904 0 50.5C0 22.6096 22.6096 0 50.5 0C78.3904 0 101 22.6096 101 50.5ZM36 39C36 37.8954 36.8954 37 38 37H44C45.1046 37 46 37.8954 46 39V63C46 64.1046 45.1046 65 44 65H38C36.8954 65 36 64.1046 36 63V39ZM57 37C55.8954 37 55 37.8954 55 39V63C55 64.1046 55.8954 65 57 65H63C64.1046 65 65 64.1046 65 63V39C65 37.8954 64.1046 37 63 37H57Z" fill="white"/>
</svg>
