<svg width="101" height="101" viewBox="0 0 101 101" fill="none" xmlns="http://www.w3.org/2000/svg">
<path fill-rule="evenodd" clip-rule="evenodd" d="M50.5 101C78.3905 101 101 78.3905 101 50.5C101 22.6096 78.3905 0 50.5 0C22.6096 0 0 22.6096 0 50.5C0 78.3905 22.6096 101 50.5 101ZM42.64 33.496L68.4597 49.2751C68.6696 49.4032 68.8429 49.5831 68.9631 49.7974C69.0831 50.0117 69.1462 50.2535 69.1462 50.4994C69.1462 50.7449 69.0831 50.9867 68.9631 51.201C68.8429 51.4153 68.6696 51.5952 68.4597 51.7234L42.64 67.5027C42.4225 67.6356 42.1738 67.7082 41.9188 67.7129C41.6641 67.7177 41.4125 67.6545 41.1903 67.5299C40.9678 67.4052 40.7829 67.2234 40.6541 67.0034C40.5253 66.7837 40.4574 66.5334 40.4574 66.2784V34.72C40.4574 34.4653 40.5253 34.215 40.6541 33.995C40.7829 33.775 40.9678 33.5935 41.1903 33.4689C41.4125 33.3442 41.6641 33.2808 41.9188 33.2855C42.1738 33.2905 42.4225 33.3631 42.64 33.496Z" fill="white"/>
</svg>
