<svg width="46" height="47" viewBox="0 0 46 47" fill="none" xmlns="http://www.w3.org/2000/svg">
<rect y="0.5" width="46" height="46" rx="13" fill="#ED5E3B"/>
<g clip-path="url(#clip0_11266_42417)">
<path d="M23.3524 39.9428C23.1515 39.9428 22.9506 39.8967 22.7694 39.8029L16.9278 36.779C15.2703 35.9201 13.9736 34.9561 12.9611 33.8331C10.745 31.3772 9.51207 28.2245 9.49248 24.9541L9.42389 14.1901C9.41572 12.9478 10.2176 11.8328 11.4162 11.4128L22.1423 7.67323C22.7792 7.44576 23.4896 7.44258 24.1379 7.66209L34.9047 11.2745C36.1099 11.6769 36.9248 12.784 36.9313 14.0247L36.9999 24.7966C37.0212 28.0622 35.8307 31.2276 33.6489 33.7107C32.6478 34.8496 31.3626 35.8278 29.7213 36.7027L23.9321 39.7949C23.7525 39.8919 23.5532 39.9412 23.3524 39.9428Z" fill="white"/>
<path d="M22.107 27.489C21.7934 27.4906 21.4799 27.3776 21.2382 27.1454L18.1288 24.155C17.6487 23.6905 17.6438 22.9365 18.119 22.4689C18.5942 21.9996 19.37 21.9949 19.8517 22.4577L22.089 24.6083L27.5516 19.2223C28.0285 18.7531 28.8042 18.7483 29.2843 19.2112C29.7661 19.6757 29.771 20.4312 29.2958 20.8973L22.9709 27.1343C22.7324 27.3697 22.4205 27.4874 22.107 27.489Z" fill="#ED5E3B"/>
</g>
<defs>
<clipPath id="clip0_11266_42417">
<rect width="28" height="33" fill="white" transform="translate(9 7.5)"/>
</clipPath>
</defs>
</svg>
