<svg width="68" height="68" viewBox="0 0 68 68" fill="none" xmlns="http://www.w3.org/2000/svg">
<rect width="68" height="68" rx="20" fill="#ED5E3B"/>
<path d="M50.667 25.6652H48.8237C48.9492 25.1187 49.0085 24.5592 49.0003 23.9985C49.0711 23.105 48.9472 22.2068 48.6372 21.3659C48.3272 20.5249 47.8385 19.7612 47.2047 19.1275C46.571 18.4937 45.8073 18.005 44.9663 17.695C44.1253 17.385 43.2271 17.2611 42.3337 17.3319C38.727 17.3319 35.7187 21.1169 34.0003 23.8785C32.282 21.1169 29.2737 17.3319 25.667 17.3319C24.7735 17.2611 23.8753 17.385 23.0344 17.695C22.1934 18.005 21.4297 18.4937 20.7959 19.1275C20.1622 19.7612 19.6734 20.5249 19.3634 21.3659C19.0534 22.2068 18.9295 23.105 19.0003 23.9985C18.9921 24.5592 19.0514 25.1187 19.177 25.6652H17.3337C16.8916 25.6652 16.4677 25.8408 16.1551 26.1533C15.8426 26.4659 15.667 26.8898 15.667 27.3319V35.6652C15.667 36.1072 15.8426 36.5311 16.1551 36.8437C16.4677 37.1563 16.8916 37.3319 17.3337 37.3319H19.0003V48.9985C19.0003 49.4405 19.1759 49.8645 19.4885 50.177C19.801 50.4896 20.225 50.6652 20.667 50.6652H47.3337C47.7757 50.6652 48.1996 50.4896 48.5122 50.177C48.8247 49.8645 49.0003 49.4405 49.0003 48.9985V37.3319H50.667C51.109 37.3319 51.5329 37.1563 51.8455 36.8437C52.1581 36.5311 52.3337 36.1072 52.3337 35.6652V27.3319C52.3337 26.8898 52.1581 26.4659 51.8455 26.1533C51.5329 25.8408 51.109 25.6652 50.667 25.6652ZM25.667 20.6652C27.522 20.6652 29.6987 23.3035 31.1803 25.6652H26.5937C22.3337 25.6652 22.3337 24.9985 22.3337 23.9985C22.3337 21.0119 24.237 20.6652 25.667 20.6652ZM32.3337 47.3319H22.3337V37.3319H32.3337V47.3319ZM32.3337 33.9985H19.0003V28.9985H32.3337V33.9985ZM42.3337 20.6652C43.7637 20.6652 45.667 21.0119 45.667 23.9985C45.667 24.9985 45.667 25.6652 41.407 25.6652H36.8203C38.302 23.3035 40.4787 20.6652 42.3337 20.6652ZM45.667 47.3319H35.667V37.3319H45.667V47.3319ZM49.0003 33.9985H35.667V28.9985H49.0003V33.9985Z" fill="#FBEEEA"/>
</svg>
