<svg width="46" height="47" viewBox="0 0 46 47" fill="none" xmlns="http://www.w3.org/2000/svg">
<rect y="0.5" width="46" height="46" rx="13" fill="#FFC501"/>
<g clip-path="url(#clip0_11266_42433)">
<path d="M23.2427 8.39062C14.3211 8.39062 7.85645 15.6691 7.85645 23.7462C7.85645 26.3259 8.60887 28.9824 9.92944 31.4086C10.1751 31.8078 10.2058 32.3145 10.0369 32.7906L9.00811 36.2302C8.77778 37.0594 9.48413 37.6736 10.2673 37.4279L13.3691 36.5066C14.2136 36.2302 14.8739 36.5834 15.6586 37.0594C17.9005 38.38 20.6937 39.0556 23.212 39.0556C30.8283 39.0556 38.5675 33.1744 38.5675 23.7001C38.5675 15.5309 31.9646 8.39062 23.2427 8.39062Z" fill="white"/>
<path fill-rule="evenodd" clip-rule="evenodd" d="M16.1022 25.7279C15.0273 25.7279 14.1367 24.8373 14.1367 23.7624C14.1367 22.6722 15.012 21.7969 16.1022 21.7969C17.1924 21.7969 18.0677 22.6722 18.0677 23.7624C18.0677 24.8373 17.1924 25.7125 16.1022 25.7279ZM23.1816 25.7281C22.0914 25.7128 21.2161 24.8375 21.2161 23.7473C21.2161 22.6724 22.1067 21.7818 23.1816 21.7971C24.2719 21.7971 25.1471 22.6724 25.1471 23.7626C25.1471 24.8375 24.2719 25.7281 23.1816 25.7281ZM28.2948 23.7628C28.2948 24.8377 29.17 25.7283 30.2603 25.7283C31.3505 25.7283 32.2258 24.8377 32.2258 23.7628C32.2258 22.6726 31.3505 21.7973 30.2603 21.7973C29.17 21.7973 28.2948 22.6726 28.2948 23.7628Z" fill="#FFC501"/>
</g>
<defs>
<clipPath id="clip0_11266_42433">
<rect width="32" height="32" fill="white" transform="translate(7 7.5)"/>
</clipPath>
</defs>
</svg>
