<svg width="68" height="68" viewBox="0 0 68 68" fill="none" xmlns="http://www.w3.org/2000/svg">
<rect width="68" height="68" rx="20" fill="#0328EE"/>
<g clip-path="url(#clip0_11266_42228)">
<path fill-rule="evenodd" clip-rule="evenodd" d="M30.3444 28.5586C31.4493 28.5611 32.5286 28.8911 33.446 29.5068C34.3635 30.1226 35.0778 30.9964 35.4989 32.0179C35.9199 33.0394 36.0287 34.1628 35.8116 35.2461C35.5945 36.3295 35.0611 37.3241 34.2789 38.1045C33.4968 38.8849 32.5008 39.4159 31.417 39.6305C30.3332 39.8451 29.21 39.7337 28.1895 39.3102C27.169 38.8868 26.2968 38.1705 25.6832 37.2516C25.0697 36.3327 24.7422 35.2526 24.7422 34.1478C24.7422 33.4127 24.8872 32.6848 25.1689 32.0059C25.4506 31.3269 25.8634 30.7102 26.3838 30.191C26.9042 29.6718 27.5219 29.2604 28.2015 28.9803C28.8811 28.7002 29.6093 28.5569 30.3444 28.5586ZM43.7233 46.6022V43.7636H35.9596C36.634 43.1539 37.2487 42.4814 37.7956 41.7552H44.7227C44.9877 41.756 45.2418 41.8615 45.4295 42.0486C45.6173 42.2358 45.7235 42.4895 45.7253 42.7545V46.6022C46.3727 46.8376 46.9165 47.2935 47.2611 47.89C47.6057 48.4865 47.7291 49.1853 47.6096 49.8638C47.4901 50.5422 47.1353 51.1568 46.6077 51.5997C46.08 52.0425 45.4132 52.2853 44.7243 52.2853C44.0354 52.2853 43.3686 52.0425 42.8409 51.5997C42.3132 51.1568 41.9585 50.5422 41.839 49.8638C41.7195 49.1853 41.8429 48.4865 42.1875 47.89C42.5321 47.2935 43.0759 46.8376 43.7233 46.6022ZM43.0234 26H38.5801C38.1487 25.291 37.6575 24.6202 37.112 23.9948H42.0241V21.7161C41.3744 21.4871 40.8262 21.0364 40.4758 20.4433C40.1254 19.8502 39.9952 19.1526 40.1081 18.4731C40.221 17.7935 40.5697 17.1755 41.093 16.7275C41.6164 16.2795 42.2808 16.0303 42.9696 16.0236C43.6585 16.0169 44.3276 16.2531 44.8596 16.6908C45.3916 17.1284 45.7523 17.7396 45.8784 18.4168C46.0045 19.094 45.8879 19.794 45.5492 20.3938C45.2104 20.9937 44.6711 21.4549 44.026 21.6966V25.0006C44.026 25.1321 44.0001 25.2624 43.9497 25.3838C43.8992 25.5053 43.8253 25.6156 43.7322 25.7084C43.639 25.8013 43.5285 25.8748 43.4069 25.9248C43.2853 25.9749 43.155 26.0004 43.0234 26ZM54 20.886C53.9986 20.3589 53.8551 19.842 53.5845 19.3896C53.3139 18.9373 52.9262 18.5663 52.4624 18.3158C51.9986 18.0654 51.4758 17.9447 50.9491 17.9665C50.4225 17.9883 49.9114 18.1518 49.4699 18.4397C49.0284 18.7277 48.6728 19.1294 48.4405 19.6026C48.2082 20.0757 48.1078 20.6028 48.15 21.1282C48.1923 21.6537 48.3754 22.158 48.6803 22.588C48.9851 23.018 49.4003 23.3578 49.8822 23.5716V29.431H40.0807C40.2669 30.0885 40.405 30.7587 40.4941 31.4362H50.8815C51.1466 31.4345 51.4003 31.3282 51.5874 31.1404C51.7746 30.9527 51.88 30.6987 51.8809 30.4336V23.7083C52.4928 23.5321 53.0307 23.1613 53.4131 22.6521C53.7955 22.1428 54.0015 21.5229 54 20.886ZM53.9512 37.1393C53.9585 36.4451 53.7191 35.7709 53.2756 35.2369C52.8321 34.7028 52.2134 34.3435 51.5298 34.2232C50.8461 34.1028 50.1419 34.229 49.5426 34.5795C48.9434 34.9299 48.4881 35.4818 48.2578 36.1367H40.3281C40.1903 36.8174 40.001 37.4867 39.7617 38.1386H48.2578C48.488 38.7933 48.9431 39.3449 49.5419 39.6954C50.1408 40.0458 50.8447 40.1723 51.5281 40.0524C52.2116 39.9324 52.8302 39.5738 53.274 39.0403C53.7177 38.5068 53.9577 37.8332 53.9512 37.1393ZM30.1328 50.2806H28.974C28.4464 50.2797 27.9407 50.07 27.5674 49.6973C27.194 49.3246 26.9835 48.8192 26.9818 48.2916V46.2539C25.8443 45.9987 24.7484 45.5845 23.7266 45.0234L22.3659 46.3841C21.9919 46.7564 21.4857 46.9654 20.958 46.9654C20.4303 46.9654 19.9241 46.7564 19.5501 46.3841L17.9063 44.7272C17.5347 44.3528 17.3262 43.8468 17.3262 43.3193C17.3262 42.7919 17.5347 42.2858 17.9063 41.9114L19.1465 40.6712C18.4972 39.6288 18.0068 38.4955 17.6914 37.3086H15.9922C15.4647 37.3077 14.9589 37.098 14.5856 36.7253C14.2123 36.3526 14.0017 35.8472 14 35.3196V32.9759C13.9996 32.7138 14.0508 32.4543 14.1507 32.212C14.2505 31.9698 14.3972 31.7495 14.5822 31.5639C14.7671 31.3783 14.9869 31.231 15.2288 31.1303C15.4707 31.0297 15.7301 30.9776 15.9922 30.9772H17.6589C17.9679 29.7784 18.4551 28.6329 19.1042 27.5788L17.9063 26.3808C17.5357 26.0066 17.3279 25.5012 17.3279 24.9746C17.3279 24.4479 17.5357 23.9426 17.9063 23.5683L19.5632 21.9114C19.9371 21.5391 20.4433 21.3301 20.971 21.3301C21.4987 21.3301 22.0049 21.5391 22.3789 21.9114L23.681 23.2135C24.7143 22.6381 25.8248 22.2139 26.9785 21.9538V20.0006C26.9811 19.4731 27.1925 18.9681 27.5664 18.5959C27.9403 18.2238 28.4464 18.0149 28.974 18.015H31.3145C31.8238 18.0185 32.3126 18.2166 32.6806 18.5689C33.0485 18.9211 33.2679 19.4007 33.2936 19.9095V26.5761C32.4142 26.2561 31.4854 26.093 30.5495 26.0944C30.4095 26.0944 30.2695 26.0944 30.1328 26.0944C29.9961 26.0944 29.8561 26.0944 29.7194 26.0944C28.654 26.0729 27.595 26.2642 26.6045 26.6571C25.6139 27.0499 24.7117 27.6365 23.9506 28.3823C23.1896 29.1282 22.585 30.0184 22.1722 31.0009C21.7595 31.9833 21.5469 33.0382 21.5469 34.1038C21.5469 35.1694 21.7595 36.2243 22.1722 37.2068C22.585 38.1892 23.1896 39.0794 23.9506 39.8253C24.7117 40.5712 25.6139 41.1577 26.6045 41.5506C27.595 41.9434 28.654 42.1347 29.7194 42.1133C29.8561 42.1133 29.9961 42.1133 30.1328 42.1133C30.2695 42.1133 30.4095 42.1133 30.5495 42.1133C31.4854 42.1147 32.4142 41.9516 33.2936 41.6315V48.386C33.2678 48.8965 33.0471 49.3775 32.677 49.73C32.307 50.0825 31.8158 50.2796 31.3047 50.2806H30.1328Z" fill="#EDEFFD"/>
</g>
<defs>
<clipPath id="clip0_11266_42228">
<rect width="40" height="36.2891" fill="white" transform="translate(14 16)"/>
</clipPath>
</defs>
</svg>
