<svg width="46" height="47" viewBox="0 0 46 47" fill="none" xmlns="http://www.w3.org/2000/svg">
<rect y="0.5" width="46" height="46" rx="13" fill="#218068"/>
<g clip-path="url(#clip0_11266_42424)">
<path opacity="0.4" d="M23.211 41.93C21.8105 41.93 20.4118 41.3982 19.3427 40.3365L18.0132 39.007C17.4978 38.4934 16.8075 38.2092 16.0754 38.2074H14.205C11.1817 38.2074 8.72126 35.7469 8.72126 32.7237V30.8515C8.71944 30.1211 8.43532 29.4309 7.91991 28.9118L6.61227 27.606C4.47049 25.477 4.46139 21.9966 6.59223 19.853L7.92174 18.5217C8.43532 18.0063 8.71944 17.316 8.72126 16.5839V14.7153C8.72126 11.6902 11.1817 9.22976 14.205 9.22976H16.0772C16.8075 9.22976 17.496 8.94564 18.015 8.42659L19.3245 7.12077C21.4535 4.97899 24.9321 4.96806 27.0775 7.10073L28.407 8.43024C28.9242 8.94564 29.6126 9.22976 30.343 9.22976H32.2152C35.2384 9.22976 37.6989 11.6902 37.6989 14.7153V16.5857C37.7008 17.316 37.9849 18.0063 38.5003 18.5253L39.8079 19.833C40.8442 20.8638 41.4179 22.237 41.4234 23.7031C41.427 25.1601 40.8661 26.5315 39.8443 27.5678C39.8261 27.586 39.8097 27.606 39.7915 27.6224L38.4985 28.9155C37.9849 29.4309 37.7008 30.1211 37.6989 30.8533V32.7237C37.6989 35.7469 35.2384 38.2074 32.2152 38.2074H30.343C29.6126 38.2092 28.9224 38.4934 28.4052 39.0088L27.0957 40.3164C26.0285 41.3909 24.6188 41.93 23.211 41.93Z" fill="white"/>
<path d="M13.937 28.9325C13.8782 28.9325 13.8292 28.9325 13.7901 28.9325C13.7607 28.9423 13.7215 28.9472 13.6725 28.9472C13.4374 28.9472 13.2513 28.8885 13.1142 28.7709C12.9868 28.6632 12.9232 28.526 12.9232 28.3595C12.9232 28.1734 13.0309 27.9873 13.2464 27.8012C13.8635 27.5171 14.3925 27.1596 14.8333 26.7286C15.2741 26.2976 15.6218 25.7785 15.8765 25.1711C15.661 25.2495 15.4455 25.3083 15.23 25.3475C15.0145 25.3768 14.7941 25.3915 14.5688 25.3915C14.0496 25.3915 13.599 25.3083 13.217 25.1418C12.8448 24.9752 12.5314 24.7646 12.2767 24.51C12.022 24.2455 11.831 23.9516 11.7037 23.6284C11.5861 23.3051 11.5273 22.9868 11.5273 22.6733C11.5273 22.3109 11.6008 21.9485 11.7477 21.5861C11.8947 21.2138 12.1053 20.8857 12.3795 20.6016C12.6636 20.3078 13.0113 20.0727 13.4227 19.8964C13.8439 19.7103 14.3288 19.6172 14.8773 19.6172C15.3867 19.6172 15.8275 19.7152 16.1997 19.9111C16.5719 20.107 16.8756 20.3666 17.1107 20.6898C17.3458 21.0032 17.5172 21.3657 17.6249 21.7771C17.7327 22.1885 17.7768 22.6097 17.7572 23.0407C17.7572 23.6774 17.669 24.2896 17.4927 24.8773C17.3262 25.4552 17.0764 25.9989 16.7434 26.5082C16.4201 27.0078 16.0185 27.4632 15.5385 27.8747C15.0684 28.2861 14.5345 28.6387 13.937 28.9325ZM14.5541 24.1133C14.8577 24.1133 15.1614 24.0496 15.4651 23.9222C15.7785 23.7949 16.0626 23.6333 16.3173 23.4374C16.2977 23.4374 16.2928 23.3933 16.3026 23.3051C16.3222 23.2072 16.3319 23.1141 16.3319 23.026C16.3319 22.7517 16.3075 22.4872 16.2585 22.2326C16.2095 21.9681 16.1262 21.7379 16.0087 21.542C15.8912 21.3363 15.7344 21.1747 15.5385 21.0571C15.3426 20.9298 15.0977 20.8661 14.8039 20.8661C14.559 20.8661 14.3239 20.9151 14.0986 21.013C13.8831 21.1012 13.6872 21.2285 13.5109 21.3951C13.3444 21.5518 13.2121 21.7428 13.1142 21.9681C13.0162 22.1934 12.9672 22.4334 12.9672 22.688C12.9672 22.9133 13.0113 23.1141 13.0995 23.2905C13.1974 23.457 13.3199 23.6039 13.4668 23.7312C13.6137 23.8586 13.7803 23.9565 13.9664 24.0251C14.1623 24.0839 14.3582 24.1133 14.5541 24.1133Z" fill="white"/>
<path d="M21.0453 28.9325C20.9866 28.9325 20.9376 28.9325 20.8984 28.9325C20.869 28.9423 20.8298 28.9472 20.7809 28.9472C20.5458 28.9472 20.3597 28.8885 20.2225 28.7709C20.0952 28.6632 20.0315 28.526 20.0315 28.3595C20.0315 28.1734 20.1393 27.9873 20.3548 27.8012C20.9719 27.5171 21.5008 27.1596 21.9416 26.7286C22.3824 26.2976 22.7301 25.7785 22.9848 25.1711C22.7693 25.2495 22.5538 25.3083 22.3383 25.3475C22.1228 25.3768 21.9024 25.3915 21.6771 25.3915C21.158 25.3915 20.7074 25.3083 20.3254 25.1418C19.9532 24.9752 19.6397 24.7646 19.385 24.51C19.1304 24.2455 18.9393 23.9516 18.812 23.6284C18.6945 23.3051 18.6357 22.9868 18.6357 22.6733C18.6357 22.3109 18.7092 21.9485 18.8561 21.5861C19.003 21.2138 19.2136 20.8857 19.4879 20.6016C19.7719 20.3078 20.1197 20.0727 20.5311 19.8964C20.9523 19.7103 21.4371 19.6172 21.9857 19.6172C22.495 19.6172 22.9358 19.7152 23.3081 19.9111C23.6803 20.107 23.9839 20.3666 24.219 20.6898C24.4541 21.0032 24.6255 21.3657 24.7333 21.7771C24.841 22.1885 24.8851 22.6097 24.8655 23.0407C24.8655 23.6774 24.7773 24.2896 24.601 24.8773C24.4345 25.4552 24.1847 25.9989 23.8517 26.5082C23.5284 27.0078 23.1268 27.4632 22.6469 27.8747C22.1767 28.2861 21.6429 28.6387 21.0453 28.9325ZM21.6624 24.1133C21.9661 24.1133 22.2697 24.0496 22.5734 23.9222C22.8869 23.7949 23.1709 23.6333 23.4256 23.4374C23.406 23.4374 23.4011 23.3933 23.4109 23.3051C23.4305 23.2072 23.4403 23.1141 23.4403 23.026C23.4403 22.7517 23.4158 22.4872 23.3668 22.2326C23.3178 21.9681 23.2346 21.7379 23.117 21.542C22.9995 21.3363 22.8428 21.1747 22.6469 21.0571C22.451 20.9298 22.2061 20.8661 21.9122 20.8661C21.6673 20.8661 21.4323 20.9151 21.207 21.013C20.9915 21.1012 20.7956 21.2285 20.6192 21.3951C20.4527 21.5518 20.3205 21.7428 20.2225 21.9681C20.1246 22.1934 20.0756 22.4334 20.0756 22.688C20.0756 22.9133 20.1197 23.1141 20.2078 23.2905C20.3058 23.457 20.4282 23.6039 20.5752 23.7312C20.7221 23.8586 20.8886 23.9565 21.0747 24.0251C21.2706 24.0839 21.4665 24.1133 21.6624 24.1133Z" fill="white"/>
<path d="M32.8388 18.6432C32.9857 18.506 33.1718 18.4375 33.3971 18.4375C33.5832 18.4375 33.74 18.4962 33.8673 18.6138C34.0044 18.7313 34.073 18.8783 34.073 19.0546C34.073 19.1036 34.0681 19.1525 34.0583 19.2015C34.0485 19.2407 34.0338 19.2848 34.0142 19.3337L30.8552 23.8739L27.4759 28.7078C27.3877 28.8254 27.2849 28.9038 27.1673 28.9429C27.0498 28.9821 26.942 29.0017 26.8441 29.0017C26.658 29.0017 26.4963 28.9478 26.3592 28.8401C26.2319 28.7323 26.1682 28.5854 26.1682 28.3993C26.1682 28.3307 26.178 28.2622 26.1976 28.1936C26.2172 28.1152 26.2515 28.0369 26.3004 27.9585C26.8882 27.1357 27.4465 26.3423 27.9754 25.5782C28.5044 24.8142 29.0333 24.0551 29.5623 23.3008C30.0814 22.5564 30.6104 21.8022 31.1491 21.0381C31.6878 20.2741 32.2462 19.4807 32.8241 18.6579L32.8388 18.6432ZM25.4482 20.7884C25.4678 20.4259 25.5462 20.1125 25.6833 19.848C25.8205 19.5835 25.9919 19.3631 26.1976 19.1868C26.4033 19.0105 26.6384 18.8832 26.9028 18.8048C27.1673 18.7166 27.4318 18.6726 27.6963 18.6726C27.9705 18.6726 28.2399 18.7166 28.5044 18.8048C28.7689 18.893 29.0039 19.0252 29.2096 19.2015C29.4251 19.3778 29.5966 19.5982 29.7239 19.8627C29.8512 20.1174 29.9149 20.4112 29.9149 20.7443C29.9149 21.0773 29.8463 21.381 29.7092 21.6552C29.5819 21.9295 29.4104 22.1695 29.1949 22.3752C28.9795 22.5711 28.7346 22.7229 28.4603 22.8307C28.186 22.9384 27.902 22.9923 27.6081 22.9923C27.3534 22.9923 27.0988 22.9433 26.8441 22.8454C26.5992 22.7474 26.3739 22.6054 26.1682 22.4193C25.9723 22.2332 25.8058 22.003 25.6686 21.7287C25.5413 21.4544 25.4678 21.141 25.4482 20.7884ZM30.5026 26.739C30.5222 26.3864 30.5957 26.0827 30.723 25.828C30.8601 25.5636 31.0316 25.3481 31.2373 25.1815C31.443 25.0052 31.6732 24.8779 31.9278 24.7995C32.1825 24.7114 32.4421 24.6673 32.7066 24.6673C32.971 24.6673 33.2306 24.7114 33.4853 24.7995C33.7498 24.8877 33.9848 25.0199 34.1905 25.1962C34.406 25.3628 34.5775 25.5734 34.7048 25.828C34.8321 26.0729 34.8958 26.3619 34.8958 26.6949C34.8958 27.0377 34.8321 27.3463 34.7048 27.6206C34.5873 27.8948 34.4256 28.125 34.2199 28.3111C34.0142 28.4972 33.7742 28.6393 33.5 28.7372C33.2355 28.8352 32.9612 28.8842 32.6772 28.8842C32.4323 28.8842 32.1874 28.8401 31.9425 28.7519C31.6976 28.6736 31.4724 28.5462 31.2667 28.3699C31.061 28.1936 30.8895 27.9732 30.7524 27.7087C30.6153 27.4345 30.532 27.1112 30.5026 26.739ZM27.6375 19.9362C27.52 19.9362 27.4171 19.9655 27.3289 20.0243C27.2506 20.0733 27.182 20.1419 27.1232 20.23C27.0645 20.3084 27.0155 20.4014 26.9763 20.5092C26.9469 20.6071 26.9224 20.7051 26.9028 20.803C26.9322 21.1067 27.0253 21.3271 27.182 21.4642C27.3387 21.6014 27.5151 21.6699 27.711 21.6699C27.8971 21.6699 28.0685 21.5965 28.2252 21.4495C28.3917 21.3026 28.475 21.0822 28.475 20.7884C28.475 20.5533 28.3868 20.3525 28.2105 20.1859C28.044 20.0194 27.853 19.9362 27.6375 19.9362ZM32.6919 25.9603C32.4372 25.9603 32.256 26.0435 32.1482 26.21C32.0503 26.3766 31.9866 26.5529 31.9572 26.739C31.9866 27.0231 32.0748 27.2386 32.2217 27.3855C32.3686 27.5226 32.54 27.5912 32.7359 27.5912C32.9025 27.5912 33.0641 27.5226 33.2208 27.3855C33.3775 27.2386 33.4559 27.0231 33.4559 26.739C33.4559 26.4941 33.3775 26.3031 33.2208 26.166C33.0641 26.0288 32.8878 25.9603 32.6919 25.9603Z" fill="white"/>
</g>
<defs>
<clipPath id="clip0_11266_42424">
<rect width="37" height="37" fill="white" transform="translate(5 5.5)"/>
</clipPath>
</defs>
</svg>
